<?xml version="1.0" encoding="utf-8"?>
<!-- Generator: Adobe Illustrator 19.1.1, SVG Export Plug-In . SVG Version: 6.00 Build 0)  -->
<svg version="1.1" id="Layer_1" xmlns="http://www.w3.org/2000/svg" xmlns:xlink="http://www.w3.org/1999/xlink" x="0px" y="0px"
	 viewBox="0 0 1000 1000" style="enable-background:new 0 0 1000 1000;" xml:space="preserve">
<style type="text/css">
	.st0{fill:#ABDFE9;}
	.st1{fill:#F9EF6B;}
	.st2{fill:#8ACA88;}
	.st3{fill:#016699;}
	.st4{fill:#F16667;}
</style>
<g>
	<g>
		<rect x="500" class="st0" width="500" height="50"/>
		<polygon class="st1" points="400,50 400,100 1000,100 1000,50 500,50 		"/>
		<polygon class="st0" points="300,100 300,150 1000,150 1000,100 400,100 		"/>
		<polygon class="st1" points="200,150 200,200 1000,200 1000,150 300,150 		"/>
		<polygon class="st0" points="100,200 100,250 200,250 1000,250 1000,200 200,200 		"/>
		<polygon class="st2" points="200,300 300,300 1000,300 1000,250 200,250 		"/>
		<polygon class="st0" points="300,350 400,350 1000,350 1000,300 300,300 		"/>
		<polygon class="st2" points="400,400 500,400 1000,400 1000,350 400,350 		"/>
		<rect x="500" y="400" class="st3" width="500" height="50"/>
		<polygon class="st2" points="400,450 400,500 1000,500 1000,450 500,450 		"/>
		<polygon class="st3" points="300,500 300,550 1000,550 1000,500 400,500 		"/>
		<polygon class="st2" points="200,550 200,600 1000,600 1000,550 300,550 		"/>
		<polygon class="st3" points="100,600 100,650 200,650 1000,650 1000,600 200,600 		"/>
		<polygon class="st4" points="200,700 300,700 1000,700 1000,650 200,650 		"/>
		<polygon class="st3" points="300,750 400,750 1000,750 1000,700 300,700 		"/>
		<polygon class="st4" points="400,800 500,800 1000,800 1000,750 400,750 		"/>
		<polygon class="st4" points="300,850 200,850 200,900 1000,900 1000,850 500,850 		"/>
		<polygon class="st1" points="100,900 100,950 200,950 1000,950 1000,900 200,900 		"/>
		<rect x="200" y="950" class="st4" width="800" height="50"/>
		<polygon class="st2" points="500,50 500,0 0,0 0,50 400,50 		"/>
		<polygon class="st4" points="400,100 400,50 0,50 0,100 300,100 		"/>
		<polygon class="st2" points="300,150 300,100 0,100 0,150 200,150 		"/>
		<polygon class="st4" points="200,200 200,150 0,150 0,200 100,200 		"/>
		<rect y="200" class="st1" width="100" height="50"/>
		<polygon class="st0" points="500,450 500,400 400,400 0,400 0,450 400,450 		"/>
		<polygon class="st3" points="400,350 300,350 0,350 0,400 400,400 		"/>
		<polygon class="st1" points="300,300 200,300 0,300 0,350 300,350 		"/>
		<polygon class="st3" points="200,250 100,250 0,250 0,300 200,300 		"/>
		<polygon class="st1" points="400,500 400,450 0,450 0,500 300,500 		"/>
		<polygon class="st0" points="300,550 300,500 0,500 0,550 200,550 		"/>
		<polygon class="st1" points="200,600 200,550 0,550 0,600 100,600 		"/>
		<rect y="600" class="st2" width="100" height="50"/>
		<rect y="900" class="st3" width="100" height="50"/>
		<polygon class="st1" points="400,800 300,800 300,850 500,850 1000,850 1000,800 500,800 		"/>
		<polygon class="st0" points="400,800 400,750 300,750 0,750 0,800 300,800 		"/>
		<polygon class="st2" points="300,700 200,700 0,700 0,750 300,750 		"/>
		<polygon class="st3" points="300,850 300,800 0,800 0,850 200,850 		"/>
		<polygon class="st0" points="200,650 100,650 0,650 0,700 200,700 		"/>
		<polygon class="st0" points="200,900 200,850 0,850 0,900 100,900 		"/>
		<polygon class="st0" points="100,950 0,950 0,1000 200,1000 200,950 		"/>
	</g>
	<g>
		<path class="st2" d="M600,782.9V750H500H334.1c47.5,31.6,104.5,50,165.9,50C535.1,800,568.7,794,600,782.9z"/>
		<path class="st3" d="M500,700H276.4c17,19,36.4,35.8,57.7,50H500V700z"/>
		<path class="st2" d="M600,700v-50H240.1c10.4,17.9,22.5,34.7,36.3,50H500H600z"/>
		<path class="st3" d="M700,650v-50H217.1c6.2,17.5,13.9,34.2,23,50H600H700z"/>
		<path class="st2" d="M782.9,600c5.7-16.1,10-32.8,12.9-50H204.2c2.9,17.2,7.2,33.9,12.9,50H700H782.9z"/>
		<path class="st3" d="M800,500H200c0,17,1.4,33.7,4.2,50h591.7C798.6,533.7,800,517,800,500z"/>
		<path class="st4" d="M795.8,450H700H204.2c-2.7,16.3-4.2,33-4.2,50h600C800,483,798.6,466.3,795.8,450z"/>
		<path class="st3" d="M700,400H600H217.1c-5.7,16.1-10,32.8-12.9,50H700V400z"/>
		<path class="st4" d="M600,350H500H240.1c-9.1,15.8-16.9,32.5-23,50H600V350z"/>
		<path class="st4" d="M700,300h23.6c-17-19-36.4-35.8-57.7-50H334.1c-21.3,14.2-40.7,31-57.7,50H500H700z"/>
		<path class="st1" d="M500,200c-61.3,0-118.3,18.4-165.9,50h331.7C618.3,218.4,561.3,200,500,200z"/>
		<path class="st0" d="M500,700v50h100h65.9c21.3-14.2,40.7-31,57.7-50H600H500z"/>
		<path class="st3" d="M600,782.9c23.4-8.3,45.5-19.4,65.9-32.9H600V782.9z"/>
		<path class="st1" d="M600,650v50h123.6c13.7-15.3,25.9-32.1,36.3-50H700H600z"/>
		<path class="st0" d="M700,650h59.9c9.1-15.8,16.9-32.5,23-50H700V650z"/>
		<path class="st1" d="M600,350h100v-50H500H276.4c-13.7,15.3-25.9,32.1-36.3,50H500H600z"/>
		<path class="st0" d="M600,350v50h100h82.9c-6.2-17.5-13.9-34.2-23-50H700H600z"/>
		<path class="st2" d="M700,450h95.8c-2.9-17.2-7.2-33.9-12.9-50H700V450z"/>
		<path class="st3" d="M700,350h59.9c-10.4-17.9-22.5-34.7-36.3-50H700V350z"/>
	</g>
</g>
</svg>
