<?xml version="1.0" encoding="utf-8"?>
<!-- Generator: Adobe Illustrator 19.1.1, SVG Export Plug-In . SVG Version: 6.00 Build 0)  -->
<svg version="1.1" id="Layer_1" xmlns="http://www.w3.org/2000/svg" xmlns:xlink="http://www.w3.org/1999/xlink" x="0px" y="0px"
	 viewBox="0 0 1000 1000" style="enable-background:new 0 0 1000 1000;" xml:space="preserve">
<style type="text/css">
	.st0{fill:#414042;}
	.st1{fill:#666666;}
	.st2{fill:#58595B;}
</style>
<g>
	<path class="st0" d="M813.9,344l135.7-135.5C947.8,208.3,794.3,182.9,813.9,344z"/>
	<path class="st1" d="M949.5,208.5c-13.8-23-38.7-39.5-74.6-39.5c-58.3,0-116.7,0-175,0c0,58.3,0,116.7,0,175c38,0,75.9,0,113.9,0
		C794.3,182.9,947.8,208.3,949.5,208.5z"/>
</g>
<path class="st2" d="M581.1,769H164.9c-17.6,0-31.9-14.3-31.9-31.9V92.9c0-17.6,14.3-31.9,31.9-31.9h416.2
	c17.6,0,31.9,14.3,31.9,31.9v644.3C613,754.7,598.7,769,581.1,769z"/>
</svg>
