<?xml version="1.0" encoding="utf-8"?>
<!-- Generator: Adobe Illustrator 19.1.1, SVG Export Plug-In . SVG Version: 6.00 Build 0)  -->
<svg version="1.1" id="Layer_1" xmlns="http://www.w3.org/2000/svg" xmlns:xlink="http://www.w3.org/1999/xlink" x="0px" y="0px"
	 viewBox="0 0 500 500" style="enable-background:new 0 0 500 500;" xml:space="preserve">
<style type="text/css">
	.st0{fill:none;stroke:#000000;stroke-miterlimit:10;}
	.st1{fill:none;stroke:#FFFFFF;stroke-miterlimit:10;}
	.st2{fill:none;stroke:#FFFFFF;stroke-width:4;stroke-miterlimit:10;}
	.st3{stroke:#FFFFFF;stroke-width:4;stroke-miterlimit:10;}
</style>
<g id="gears">
	<g id="gear-left">
		<g>
			<g>
				<path d="M134.6,150.9c0.4-4,1.6-7.1,3.8-10.4c0.3-0.4,1.1-0.6,1.8-0.3c1.8,0.7,3.6,1.5,5.3,2.4c1.8,0.9,3.5,1.8,5.2,2.9
					c0.6,0.4,0.8,1.1,0.4,1.7c-0.3,0.5-0.6,1.1-0.8,1.7c-0.3,0.6-0.5,1.1-0.7,1.7c-0.2,0.6-0.4,1.2-0.5,1.8
					c-0.1,0.6-0.3,1.2-0.4,1.8c-0.1,0.7-0.7,1.1-1.4,1c-1.9-0.3-3.9-0.6-5.8-1.1c-1.9-0.5-3.8-1-5.6-1.6
					C135.1,152,134.6,151.4,134.6,150.9z"/>
				<path d="M131.3,153.4c0,0,0-0.1,0.1-0.2c0.1-0.1,0.2-0.3,0.3-0.5c0.3-0.4,0.7-1,1.2-1.7c0.9-1.5,2.1-3.5,2.8-5.7
					c0.5-1.1,0.7-2.2,1-3.2c0.2-0.5,0.2-1,0.3-1.5c0.1-0.5,0.2-1,0.2-1.4c0.1-1.7,0.2-2.9,0.2-2.9h6c0,0,0,0.4-0.1,1
					c0,0.6-0.1,1.5-0.2,2.6c-0.1,0.5-0.2,1.1-0.3,1.7c-0.1,0.6-0.1,1.2-0.3,1.9c-0.3,1.3-0.6,2.7-1.2,4c-0.9,2.7-2.4,5.1-3.5,6.9
					c-0.6,0.9-1.2,1.6-1.5,2.1c-0.2,0.2-0.3,0.4-0.4,0.6c-0.1,0.1-0.2,0.2-0.2,0.2L131.3,153.4z"/>
			</g>
			<g>
				<path d="M119.8,162.7c2.9-2.8,5.7-4.4,9.6-5.6c0.5-0.1,1.2,0.2,1.6,0.9c0.9,1.7,1.8,3.4,2.6,5.2c0.8,1.8,1.5,3.6,2.1,5.5
					c0.2,0.6-0.1,1.3-0.7,1.6c-2.4,0.8-4.5,2.1-6.4,3.7c-0.5,0.4-1.3,0.4-1.7-0.1c-2.7-3-5-6.1-7-9.4
					C119.4,163.9,119.4,163,119.8,162.7z"/>
				<path d="M115.6,162.4c0,0,0.3,0,0.8-0.1c0.5-0.1,1.2-0.3,2-0.5c0.4-0.1,0.9-0.3,1.3-0.4c0.5-0.2,1-0.3,1.5-0.5
					c0.5-0.2,1-0.5,1.5-0.7c0.5-0.2,1-0.5,1.5-0.8c0.5-0.3,1-0.6,1.5-0.9c0.5-0.3,0.9-0.7,1.3-1c0.9-0.6,1.6-1.4,2.3-1.9
					c0.3-0.3,0.6-0.6,0.8-0.8c0.2-0.3,0.4-0.5,0.6-0.7c0.3-0.4,0.5-0.6,0.5-0.6l4.6,3.9c0,0-0.2,0.3-0.7,0.7
					c-0.2,0.2-0.5,0.5-0.8,0.8c-0.3,0.3-0.6,0.7-1,1c-0.8,0.7-1.7,1.6-2.8,2.4c-0.5,0.4-1.1,0.8-1.6,1.2c-0.6,0.4-1.2,0.7-1.8,1.1
					c-0.6,0.4-1.2,0.7-1.9,1c-0.6,0.3-1.2,0.6-1.8,0.9c-0.6,0.2-1.2,0.4-1.8,0.7c-0.6,0.2-1.1,0.4-1.6,0.5c-1,0.3-1.9,0.5-2.5,0.6
					c-0.6,0.1-1,0.2-1,0.2L115.6,162.4z"/>
			</g>
			<g>
				<path d="M100.8,162.1c4-0.3,7.2,0.3,10.9,1.9c0.5,0.2,0.8,1,0.6,1.7c-0.4,1.9-0.9,3.8-1.4,5.7c-0.6,1.8-1.2,3.7-1.9,5.5
					c-0.3,0.6-1,1-1.6,0.7c-2.3-0.9-4.8-1.3-7.3-1.3c-0.7,0-1.2-0.5-1.3-1.2c-0.1-4,0.1-7.9,0.7-11.7
					C99.8,162.8,100.3,162.2,100.8,162.1z"/>
				<path d="M97.8,159.3c0,0,0.2,0.2,0.7,0.4c0.5,0.2,1.1,0.5,1.9,0.9c0.8,0.4,1.8,0.6,2.8,1.1c0.5,0.1,1.1,0.3,1.6,0.4
					c0.3,0.1,0.6,0.1,0.8,0.2c0.3,0.1,0.6,0.1,0.9,0.1c0.6,0.1,1.1,0.2,1.7,0.3c0.6,0.1,1.1,0.1,1.7,0.1c0.5,0,1.1,0.1,1.6,0.1
					c0.5,0,1-0.1,1.4-0.1c0.9,0,1.6-0.1,2.1-0.2c0.5-0.1,0.8-0.1,0.8-0.1l1,5.9c0,0-0.4,0.1-1,0.1c-0.6,0.1-1.5,0.3-2.6,0.3
					c-0.5,0-1.1,0.1-1.7,0.1c-0.6,0.1-1.3,0-1.9-0.1c-0.7,0-1.4,0-2-0.1c-0.7-0.1-1.4-0.2-2.1-0.3c-0.3-0.1-0.7-0.1-1-0.2
					c-0.3-0.1-0.7-0.2-1-0.3c-0.7-0.2-1.3-0.3-2-0.5c-1.2-0.5-2.4-0.8-3.4-1.3c-1-0.5-1.8-0.8-2.3-1.1c-0.5-0.3-0.8-0.5-0.8-0.5
					L97.8,159.3z"/>
			</g>
			<g>
				<path d="M86.6,149.6c3.3,2.4,5.4,4.9,7.2,8.5c0.2,0.4,0,1.2-0.6,1.7c-1.5,1.2-3.1,2.4-4.7,3.4c-1.6,1.1-3.3,2.1-5.1,3
					c-0.6,0.3-1.3,0.1-1.7-0.4c-0.6-1.1-1.3-2.1-2.1-3c-0.8-0.9-1.6-1.8-2.6-2.6c-0.6-0.4-0.6-1.2-0.2-1.7c1.2-1.6,2.5-3.1,3.8-4.5
					c1.3-1.4,2.7-2.7,4.2-4C85.4,149.4,86.2,149.3,86.6,149.6z"/>
				<path d="M86.2,145.4c0,0,0.1,0.3,0.3,0.7c0.1,0.5,0.5,1.1,0.9,1.9c0.7,1.6,2,3.5,3.4,5.3c0.8,0.8,1.5,1.8,2.4,2.4
					c0.4,0.4,0.8,0.7,1.2,1c0.4,0.3,0.8,0.6,1.1,0.8c0.4,0.3,0.7,0.5,1,0.7c0.3,0.2,0.6,0.3,0.8,0.5c0.4,0.3,0.7,0.4,0.7,0.4l-3,5.2
					c0,0-0.3-0.2-0.8-0.5c-0.3-0.2-0.6-0.4-1-0.6c-0.4-0.2-0.7-0.5-1.2-0.9c-0.4-0.3-0.9-0.7-1.4-1c-0.5-0.4-0.9-0.8-1.4-1.3
					c-1-0.8-1.9-2-2.9-3c-1.8-2.2-3.4-4.6-4.2-6.5c-0.5-1-0.9-1.7-1.1-2.3c-0.2-0.6-0.3-0.9-0.3-0.9L86.2,145.4z"/>
			</g>
			<g>
				<path d="M83.8,130.8c1,3.9,1,7.2,0,11.1c-0.1,0.5-0.8,0.9-1.5,0.9c-2,0-3.9-0.2-5.8-0.4c-1.9-0.2-3.9-0.5-5.8-1
					c-0.7-0.1-1.2-0.8-1-1.4c0.3-1.2,0.4-2.5,0.3-3.7c0.1-1.2-0.1-2.4-0.3-3.7c-0.2-0.7,0.3-1.3,1-1.4c2-0.4,3.9-0.7,5.8-1
					c1.9-0.2,3.8-0.4,5.8-0.4C83.1,129.9,83.7,130.3,83.8,130.8z"/>
				<path d="M86.2,127.3c0,0-0.1,0.3-0.3,0.7c-0.2,0.5-0.3,1.2-0.6,2c-0.5,1.7-0.7,4-0.8,6.3c0.1,2.3,0.3,4.6,0.8,6.3
					c0.2,0.8,0.3,1.5,0.6,2c0.2,0.5,0.3,0.7,0.3,0.7l-5.7,2.1c0,0-0.1-0.3-0.3-0.9c-0.3-0.6-0.4-1.4-0.7-2.5c-0.6-2.1-0.9-4.9-1-7.7
					c0.1-2.8,0.4-5.7,1-7.7c0.3-1,0.4-1.9,0.7-2.5c0.2-0.6,0.3-0.9,0.3-0.9L86.2,127.3z"/>
			</g>
			<g>
				<path d="M93.8,114.6c-1.8,3.6-3.9,6.1-7.2,8.5c-0.4,0.3-1.2,0.2-1.7-0.3c-1.5-1.3-2.9-2.6-4.2-4c-1.3-1.4-2.6-2.9-3.8-4.5
					c-0.4-0.5-0.4-1.3,0.2-1.7c1-0.8,1.8-1.7,2.6-2.6c0.8-0.9,1.5-1.9,2.1-3c0.4-0.6,1.1-0.8,1.7-0.4c1.7,0.9,3.4,1.9,5.1,3
					c1.6,1.1,3.2,2.2,4.7,3.4C93.8,113.4,94,114.2,93.8,114.6z"/>
				<path d="M97.8,113.5c0,0-0.2,0.2-0.7,0.4c-0.2,0.1-0.5,0.3-0.8,0.5c-0.3,0.2-0.6,0.4-1,0.7c-0.3,0.3-0.7,0.5-1.1,0.8
					c-0.4,0.3-0.8,0.7-1.2,1c-0.8,0.7-1.6,1.6-2.4,2.4c-1.4,1.8-2.7,3.7-3.4,5.3c-0.4,0.8-0.7,1.4-0.9,1.9c-0.2,0.5-0.3,0.7-0.3,0.7
					l-5.7-2.1c0,0,0.1-0.3,0.3-0.9c0.2-0.6,0.6-1.4,1.1-2.3c0.9-1.9,2.5-4.3,4.2-6.5c1-1,1.9-2.1,2.9-3c0.5-0.4,1-0.9,1.4-1.3
					c0.5-0.4,0.9-0.7,1.4-1c0.4-0.3,0.8-0.6,1.2-0.9c0.4-0.2,0.7-0.4,1-0.6c0.5-0.3,0.8-0.5,0.8-0.5L97.8,113.5z"/>
			</g>
			<g>
				<path d="M111.8,108.7c-3.7,1.6-6.9,2.2-10.9,1.9c-0.5,0-1.1-0.7-1.2-1.4c-0.6-3.8-0.8-7.7-0.7-11.7c0-0.7,0.6-1.2,1.3-1.2
					c2.5,0,4.9-0.4,7.3-1.3c0.6-0.2,1.3,0.1,1.6,0.7c0.7,1.8,1.4,3.7,1.9,5.5c0.6,1.9,1,3.8,1.4,5.7
					C112.6,107.7,112.3,108.5,111.8,108.7z"/>
				<path d="M115.6,110.3c0,0-0.3,0-0.8-0.1c-0.5-0.1-1.2-0.2-2.1-0.2c-0.4,0-0.9,0-1.4-0.1c-0.5-0.1-1,0-1.6,0.1
					c-0.5,0-1.1,0-1.7,0.1c-0.6,0.1-1.1,0.2-1.7,0.3c-0.3,0-0.6,0.1-0.9,0.1c-0.3,0.1-0.6,0.1-0.8,0.2c-0.5,0.1-1.1,0.3-1.6,0.4
					c-1,0.4-2,0.7-2.8,1.1c-0.8,0.4-1.4,0.7-1.9,0.9c-0.4,0.3-0.7,0.4-0.7,0.4l-3-5.2c0,0,0.3-0.2,0.8-0.5c0.6-0.3,1.4-0.7,2.3-1.1
					c1-0.5,2.2-0.8,3.4-1.3c0.6-0.2,1.3-0.3,2-0.5c0.3-0.1,0.7-0.2,1-0.3c0.3-0.1,0.7-0.1,1-0.2c0.7-0.1,1.4-0.2,2.1-0.3
					c0.7-0.1,1.4-0.1,2-0.1c0.7,0,1.3-0.1,1.9-0.1c0.6,0,1.2,0.1,1.7,0.1c1.1,0,1.9,0.2,2.6,0.3c0.6,0.1,1,0.1,1,0.1L115.6,110.3z"
					/>
			</g>
			<g>
				<path d="M129.4,115.6c-3.9-1.1-6.7-2.8-9.6-5.6c-0.4-0.4-0.4-1.2,0-1.8c2-3.2,4.3-6.4,7-9.4c0.5-0.5,1.2-0.5,1.7-0.1
					c1.9,1.6,4,2.8,6.4,3.7c0.6,0.2,1,0.9,0.7,1.6c-0.6,1.9-1.3,3.7-2.1,5.5c-0.8,1.8-1.6,3.6-2.6,5.2
					C130.6,115.4,129.9,115.8,129.4,115.6z"/>
				<path d="M131.3,119.4c0,0-0.2-0.2-0.5-0.6c-0.2-0.2-0.4-0.4-0.6-0.7c-0.2-0.3-0.5-0.6-0.8-0.8c-0.7-0.6-1.3-1.3-2.3-1.9
					c-0.4-0.3-0.9-0.7-1.3-1c-0.5-0.3-1-0.6-1.5-0.9c-0.5-0.3-1-0.6-1.5-0.8c-0.5-0.2-1-0.5-1.5-0.7c-0.5-0.2-1-0.4-1.5-0.5
					c-0.5-0.2-0.9-0.4-1.3-0.4c-0.8-0.2-1.5-0.4-2-0.5c-0.5-0.1-0.8-0.1-0.8-0.1l1-5.9c0,0,0.3,0.1,1,0.2c0.6,0.2,1.5,0.4,2.5,0.6
					c0.5,0.1,1.1,0.3,1.6,0.5c0.6,0.2,1.2,0.4,1.8,0.7c0.6,0.3,1.2,0.6,1.8,0.9c0.6,0.3,1.3,0.6,1.9,1c0.6,0.4,1.2,0.7,1.8,1.1
					c0.6,0.4,1.1,0.8,1.6,1.2c1.1,0.8,2,1.7,2.8,2.4c0.4,0.3,0.7,0.7,1,1c0.3,0.3,0.5,0.6,0.8,0.8c0.4,0.5,0.7,0.7,0.7,0.7
					L131.3,119.4z"/>
			</g>
			<g>
				<path d="M138.4,132.3c-2.2-3.4-3.3-6.4-3.8-10.4c-0.1-0.5,0.5-1.2,1.1-1.4c1.8-0.6,3.7-1.1,5.6-1.6c1.9-0.5,3.9-0.8,5.8-1.1
					c0.7-0.1,1.3,0.4,1.4,1c0.1,0.6,0.3,1.2,0.4,1.8c0.1,0.6,0.3,1.2,0.5,1.8c0.2,0.6,0.5,1.1,0.7,1.7c0.3,0.6,0.5,1.1,0.8,1.7
					c0.3,0.6,0.2,1.3-0.4,1.7c-1.6,1-3.4,2-5.2,2.9c-1.8,0.9-3.5,1.7-5.3,2.4C139.5,132.9,138.7,132.7,138.4,132.3z"/>
				<path d="M137.5,136.4c0,0-0.1-1.2-0.2-2.9c-0.1-0.4-0.1-0.9-0.2-1.4c-0.1-0.5-0.1-1-0.3-1.5c-0.3-1-0.5-2.2-1-3.2
					c-0.7-2.2-1.9-4.2-2.8-5.7c-0.5-0.7-0.9-1.3-1.2-1.7c-0.2-0.2-0.3-0.4-0.3-0.5c-0.1-0.1-0.1-0.2-0.1-0.2l4.6-3.9
					c0,0,0.1,0.1,0.2,0.2c0.1,0.1,0.2,0.3,0.4,0.6c0.4,0.5,0.9,1.2,1.5,2.1c1.1,1.8,2.6,4.2,3.5,6.9c0.5,1.3,0.8,2.7,1.2,4
					c0.2,0.6,0.2,1.3,0.3,1.9c0.1,0.6,0.2,1.2,0.3,1.7c0.1,1.1,0.1,1.9,0.2,2.6c0,0.6,0.1,1,0.1,1H137.5z"/>
			</g>
		</g>
		<g>
			<path d="M111,112.3c-13.3,0-24,10.8-24,24c0,13.3,10.8,24,24,24s24-10.8,24-24C135.1,123.1,124.3,112.3,111,112.3z M111,148.4
				c-6.6,0-12-5.4-12-12c0-6.6,5.4-12,12-12c6.6,0,12,5.4,12,12C123,143,117.7,148.4,111,148.4z"/>
		</g>
	</g>
	<g id="gear-right">
		<g>
			<g>
				<path d="M413.7,150.9c0.4-4,1.6-7.1,3.8-10.4c0.3-0.4,1.1-0.6,1.8-0.3c1.8,0.7,3.6,1.5,5.3,2.4c1.8,0.9,3.5,1.8,5.2,2.9
					c0.6,0.4,0.8,1.1,0.4,1.7c-0.3,0.5-0.6,1.1-0.8,1.7c-0.3,0.6-0.5,1.1-0.7,1.7c-0.2,0.6-0.4,1.2-0.5,1.8
					c-0.1,0.6-0.3,1.2-0.4,1.8c-0.1,0.7-0.7,1.1-1.4,1c-1.9-0.3-3.9-0.6-5.8-1.1c-1.9-0.5-3.8-1-5.6-1.6
					C414.2,152,413.6,151.4,413.7,150.9z"/>
				<path d="M410.4,153.4c0,0,0-0.1,0.1-0.2c0.1-0.1,0.2-0.3,0.3-0.5c0.3-0.4,0.7-1,1.2-1.7c0.9-1.5,2.1-3.5,2.8-5.7
					c0.5-1.1,0.7-2.2,1-3.2c0.2-0.5,0.2-1,0.3-1.5c0.1-0.5,0.2-1,0.2-1.4c0.1-1.7,0.2-2.9,0.2-2.9h6c0,0,0,0.4-0.1,1
					c0,0.6-0.1,1.5-0.2,2.6c-0.1,0.5-0.2,1.1-0.3,1.7c-0.1,0.6-0.1,1.2-0.3,1.9c-0.3,1.3-0.6,2.7-1.2,4c-0.9,2.7-2.4,5.1-3.5,6.9
					c-0.6,0.9-1.2,1.6-1.5,2.1c-0.2,0.2-0.3,0.4-0.4,0.6c-0.1,0.1-0.2,0.2-0.2,0.2L410.4,153.4z"/>
			</g>
			<g>
				<path d="M398.9,162.7c2.9-2.8,5.7-4.4,9.6-5.6c0.5-0.1,1.2,0.2,1.6,0.9c0.9,1.7,1.8,3.4,2.6,5.2c0.8,1.8,1.5,3.6,2.1,5.5
					c0.2,0.6-0.1,1.3-0.7,1.6c-2.4,0.8-4.5,2.1-6.4,3.7c-0.5,0.4-1.3,0.4-1.7-0.1c-2.7-3-5-6.1-7-9.4
					C398.5,163.9,398.5,163,398.9,162.7z"/>
				<path d="M394.7,162.4c0,0,0.3,0,0.8-0.1c0.5-0.1,1.2-0.3,2-0.5c0.4-0.1,0.9-0.3,1.3-0.4c0.5-0.2,1-0.3,1.5-0.5
					c0.5-0.2,1-0.5,1.5-0.7c0.5-0.2,1-0.5,1.5-0.8c0.5-0.3,1-0.6,1.5-0.9c0.5-0.3,0.9-0.7,1.3-1c0.9-0.6,1.6-1.4,2.3-1.9
					c0.3-0.3,0.6-0.6,0.8-0.8c0.2-0.3,0.4-0.5,0.6-0.7c0.3-0.4,0.5-0.6,0.5-0.6l4.6,3.9c0,0-0.2,0.3-0.7,0.7
					c-0.2,0.2-0.5,0.5-0.8,0.8c-0.3,0.3-0.6,0.7-1,1c-0.8,0.7-1.7,1.6-2.8,2.4c-0.5,0.4-1.1,0.8-1.6,1.2c-0.6,0.4-1.2,0.7-1.8,1.1
					c-0.6,0.4-1.2,0.7-1.9,1c-0.6,0.3-1.2,0.6-1.8,0.9c-0.6,0.2-1.2,0.4-1.8,0.7c-0.6,0.2-1.1,0.4-1.6,0.5c-1,0.3-1.9,0.5-2.5,0.6
					c-0.6,0.1-1,0.2-1,0.2L394.7,162.4z"/>
			</g>
			<g>
				<path d="M379.9,162.1c4-0.3,7.2,0.3,10.9,1.9c0.5,0.2,0.8,1,0.6,1.7c-0.4,1.9-0.9,3.8-1.4,5.7c-0.6,1.8-1.2,3.7-1.9,5.5
					c-0.3,0.6-1,1-1.6,0.7c-2.3-0.9-4.8-1.3-7.3-1.3c-0.7,0-1.2-0.5-1.3-1.2c-0.1-4,0.1-7.9,0.7-11.7
					C378.8,162.8,379.4,162.2,379.9,162.1z"/>
				<path d="M376.9,159.3c0,0,0.2,0.2,0.7,0.4c0.5,0.2,1.1,0.5,1.9,0.9c0.8,0.4,1.8,0.6,2.8,1.1c0.5,0.1,1.1,0.3,1.6,0.4
					c0.3,0.1,0.6,0.1,0.8,0.2c0.3,0.1,0.6,0.1,0.9,0.1c0.6,0.1,1.1,0.2,1.7,0.3c0.6,0.1,1.1,0.1,1.7,0.1c0.5,0,1.1,0.1,1.6,0.1
					c0.5,0,1-0.1,1.4-0.1c0.9,0,1.6-0.1,2.1-0.2c0.5-0.1,0.8-0.1,0.8-0.1l1,5.9c0,0-0.4,0.1-1,0.1c-0.6,0.1-1.5,0.3-2.6,0.3
					c-0.5,0-1.1,0.1-1.7,0.1c-0.6,0.1-1.3,0-1.9-0.1c-0.7,0-1.4,0-2-0.1c-0.7-0.1-1.4-0.2-2.1-0.3c-0.3-0.1-0.7-0.1-1-0.2
					c-0.3-0.1-0.7-0.2-1-0.3c-0.7-0.2-1.3-0.3-2-0.5c-1.2-0.5-2.4-0.8-3.4-1.3c-1-0.5-1.8-0.8-2.3-1.1c-0.5-0.3-0.8-0.5-0.8-0.5
					L376.9,159.3z"/>
			</g>
			<g>
				<path d="M365.7,149.6c3.3,2.4,5.4,4.9,7.2,8.5c0.2,0.4,0,1.2-0.6,1.7c-1.5,1.2-3.1,2.4-4.7,3.4c-1.6,1.1-3.3,2.1-5.1,3
					c-0.6,0.3-1.3,0.1-1.7-0.4c-0.6-1.1-1.3-2.1-2.1-3c-0.8-0.9-1.6-1.8-2.6-2.6c-0.6-0.4-0.6-1.2-0.2-1.7c1.2-1.6,2.5-3.1,3.8-4.5
					c1.3-1.4,2.7-2.7,4.2-4C364.5,149.4,365.3,149.3,365.7,149.6z"/>
				<path d="M365.2,145.4c0,0,0.1,0.3,0.3,0.7c0.1,0.5,0.5,1.1,0.9,1.9c0.7,1.6,2,3.5,3.4,5.3c0.8,0.8,1.5,1.8,2.4,2.4
					c0.4,0.4,0.8,0.7,1.2,1c0.4,0.3,0.8,0.6,1.1,0.8c0.4,0.3,0.7,0.5,1,0.7c0.3,0.2,0.6,0.3,0.8,0.5c0.4,0.3,0.7,0.4,0.7,0.4l-3,5.2
					c0,0-0.3-0.2-0.8-0.5c-0.3-0.2-0.6-0.4-1-0.6c-0.4-0.2-0.7-0.5-1.2-0.9c-0.4-0.3-0.9-0.7-1.4-1c-0.5-0.4-0.9-0.8-1.4-1.3
					c-1-0.8-1.9-2-2.9-3c-1.8-2.2-3.4-4.6-4.2-6.5c-0.5-1-0.9-1.7-1.1-2.3c-0.2-0.6-0.3-0.9-0.3-0.9L365.2,145.4z"/>
			</g>
			<g>
				<path d="M362.9,130.8c1,3.9,1,7.2,0,11.1c-0.1,0.5-0.8,0.9-1.5,0.9c-2,0-3.9-0.2-5.8-0.4c-1.9-0.2-3.9-0.5-5.8-1
					c-0.7-0.1-1.2-0.8-1-1.4c0.3-1.2,0.4-2.5,0.3-3.7c0.1-1.2-0.1-2.4-0.3-3.7c-0.2-0.7,0.3-1.3,1-1.4c2-0.4,3.9-0.7,5.8-1
					c1.9-0.2,3.8-0.4,5.8-0.4C362.1,129.9,362.8,130.3,362.9,130.8z"/>
				<path d="M365.2,127.3c0,0-0.1,0.3-0.3,0.7c-0.2,0.5-0.3,1.2-0.6,2c-0.5,1.7-0.7,4-0.8,6.3c0.1,2.3,0.3,4.6,0.8,6.3
					c0.2,0.8,0.3,1.5,0.6,2c0.2,0.5,0.3,0.7,0.3,0.7l-5.7,2.1c0,0-0.1-0.3-0.3-0.9c-0.3-0.6-0.4-1.4-0.7-2.5c-0.6-2.1-0.9-4.9-1-7.7
					c0.1-2.8,0.4-5.7,1-7.7c0.3-1,0.4-1.9,0.7-2.5c0.2-0.6,0.3-0.9,0.3-0.9L365.2,127.3z"/>
			</g>
			<g>
				<path d="M372.9,114.6c-1.8,3.6-3.9,6.1-7.2,8.5c-0.4,0.3-1.2,0.2-1.7-0.3c-1.5-1.3-2.9-2.6-4.2-4c-1.3-1.4-2.6-2.9-3.8-4.5
					c-0.4-0.5-0.4-1.3,0.2-1.7c1-0.8,1.8-1.7,2.6-2.6c0.8-0.9,1.5-1.9,2.1-3c0.4-0.6,1.1-0.8,1.7-0.4c1.7,0.9,3.4,1.9,5.1,3
					c1.6,1.1,3.2,2.2,4.7,3.4C372.8,113.4,373.1,114.2,372.9,114.6z"/>
				<path d="M376.9,113.5c0,0-0.2,0.2-0.7,0.4c-0.2,0.1-0.5,0.3-0.8,0.5c-0.3,0.2-0.6,0.4-1,0.7c-0.3,0.3-0.7,0.5-1.1,0.8
					c-0.4,0.3-0.8,0.7-1.2,1c-0.8,0.7-1.6,1.6-2.4,2.4c-1.4,1.8-2.7,3.7-3.4,5.3c-0.4,0.8-0.7,1.4-0.9,1.9c-0.2,0.5-0.3,0.7-0.3,0.7
					l-5.7-2.1c0,0,0.1-0.3,0.3-0.9c0.2-0.6,0.6-1.4,1.1-2.3c0.9-1.9,2.5-4.3,4.2-6.5c1-1,1.9-2.1,2.9-3c0.5-0.4,1-0.9,1.4-1.3
					c0.5-0.4,0.9-0.7,1.4-1c0.4-0.3,0.8-0.6,1.2-0.9c0.4-0.2,0.7-0.4,1-0.6c0.5-0.3,0.8-0.5,0.8-0.5L376.9,113.5z"/>
			</g>
			<g>
				<path d="M390.8,108.7c-3.7,1.6-6.9,2.2-10.9,1.9c-0.5,0-1.1-0.7-1.2-1.4c-0.6-3.8-0.8-7.7-0.7-11.7c0-0.7,0.6-1.2,1.3-1.2
					c2.5,0,4.9-0.4,7.3-1.3c0.6-0.2,1.3,0.1,1.6,0.7c0.7,1.8,1.4,3.7,1.9,5.5c0.6,1.9,1,3.8,1.4,5.7
					C391.6,107.7,391.3,108.5,390.8,108.7z"/>
				<path d="M394.7,110.3c0,0-0.3,0-0.8-0.1c-0.5-0.1-1.2-0.2-2.1-0.2c-0.4,0-0.9,0-1.4-0.1c-0.5-0.1-1,0-1.6,0.1
					c-0.5,0-1.1,0-1.7,0.1c-0.6,0.1-1.1,0.2-1.7,0.3c-0.3,0-0.6,0.1-0.9,0.1c-0.3,0.1-0.6,0.1-0.8,0.2c-0.5,0.1-1.1,0.3-1.6,0.4
					c-1,0.4-2,0.7-2.8,1.1c-0.8,0.4-1.4,0.7-1.9,0.9c-0.4,0.3-0.7,0.4-0.7,0.4l-3-5.2c0,0,0.3-0.2,0.8-0.5c0.6-0.3,1.4-0.7,2.3-1.1
					c1-0.5,2.2-0.8,3.4-1.3c0.6-0.2,1.3-0.3,2-0.5c0.3-0.1,0.7-0.2,1-0.3c0.3-0.1,0.7-0.1,1-0.2c0.7-0.1,1.4-0.2,2.1-0.3
					c0.7-0.1,1.4-0.1,2-0.1c0.7,0,1.3-0.1,1.9-0.1c0.6,0,1.2,0.1,1.7,0.1c1.1,0,1.9,0.2,2.6,0.3c0.6,0.1,1,0.1,1,0.1L394.7,110.3z"
					/>
			</g>
			<g>
				<path d="M408.5,115.6c-3.9-1.1-6.7-2.8-9.6-5.6c-0.4-0.4-0.4-1.2,0-1.8c2-3.2,4.3-6.4,7-9.4c0.5-0.5,1.2-0.5,1.7-0.1
					c1.9,1.6,4,2.8,6.4,3.7c0.6,0.2,1,0.9,0.7,1.6c-0.6,1.9-1.3,3.7-2.1,5.5c-0.8,1.8-1.6,3.6-2.6,5.2
					C409.7,115.4,409,115.8,408.5,115.6z"/>
				<path d="M410.4,119.4c0,0-0.2-0.2-0.5-0.6c-0.2-0.2-0.4-0.4-0.6-0.7c-0.2-0.3-0.5-0.6-0.8-0.8c-0.7-0.6-1.3-1.3-2.3-1.9
					c-0.4-0.3-0.9-0.7-1.3-1c-0.5-0.3-1-0.6-1.5-0.9c-0.5-0.3-1-0.6-1.5-0.8c-0.5-0.2-1-0.5-1.5-0.7c-0.5-0.2-1-0.4-1.5-0.5
					c-0.5-0.2-0.9-0.4-1.3-0.4c-0.8-0.2-1.5-0.4-2-0.5c-0.5-0.1-0.8-0.1-0.8-0.1l1-5.9c0,0,0.3,0.1,1,0.2c0.6,0.2,1.5,0.4,2.5,0.6
					c0.5,0.1,1.1,0.3,1.6,0.5c0.6,0.2,1.2,0.4,1.8,0.7c0.6,0.3,1.2,0.6,1.8,0.9c0.6,0.3,1.3,0.6,1.9,1c0.6,0.4,1.2,0.7,1.8,1.1
					c0.6,0.4,1.1,0.8,1.6,1.2c1.1,0.8,2,1.7,2.8,2.4c0.4,0.3,0.7,0.7,1,1c0.3,0.3,0.5,0.6,0.8,0.8c0.4,0.5,0.7,0.7,0.7,0.7
					L410.4,119.4z"/>
			</g>
			<g>
				<path d="M417.5,132.3c-2.2-3.4-3.3-6.4-3.8-10.4c-0.1-0.5,0.5-1.2,1.1-1.4c1.8-0.6,3.7-1.1,5.6-1.6c1.9-0.5,3.9-0.8,5.8-1.1
					c0.7-0.1,1.3,0.4,1.4,1c0.1,0.6,0.3,1.2,0.4,1.8c0.1,0.6,0.3,1.2,0.5,1.8c0.2,0.6,0.5,1.1,0.7,1.7c0.3,0.6,0.5,1.1,0.8,1.7
					c0.3,0.6,0.2,1.3-0.4,1.7c-1.6,1-3.4,2-5.2,2.9c-1.8,0.9-3.5,1.7-5.3,2.4C418.6,132.9,417.8,132.7,417.5,132.3z"/>
				<path d="M416.5,136.4c0,0-0.1-1.2-0.2-2.9c-0.1-0.4-0.1-0.9-0.2-1.4c-0.1-0.5-0.1-1-0.3-1.5c-0.3-1-0.5-2.2-1-3.2
					c-0.7-2.2-1.9-4.2-2.8-5.7c-0.5-0.7-0.9-1.3-1.2-1.7c-0.2-0.2-0.3-0.4-0.3-0.5c-0.1-0.1-0.1-0.2-0.1-0.2l4.6-3.9
					c0,0,0.1,0.1,0.2,0.2c0.1,0.1,0.2,0.3,0.4,0.6c0.4,0.5,0.9,1.2,1.5,2.1c1.1,1.8,2.6,4.2,3.5,6.9c0.5,1.3,0.8,2.7,1.2,4
					c0.2,0.6,0.2,1.3,0.3,1.9c0.1,0.6,0.2,1.2,0.3,1.7c0.1,1.1,0.1,1.9,0.2,2.6c0,0.6,0.1,1,0.1,1H416.5z"/>
			</g>
		</g>
		<g>
			<path d="M390.1,112.3c-13.3,0-24,10.8-24,24c0,13.3,10.8,24,24,24c13.3,0,24-10.8,24-24C414.1,123.1,403.4,112.3,390.1,112.3z
				 M390.1,148.4c-6.6,0-12-5.4-12-12c0-6.6,5.4-12,12-12c6.6,0,12,5.4,12,12C402.1,143,396.7,148.4,390.1,148.4z"/>
		</g>
	</g>
	<g id="gear-bottom">
		<g>
			<g>
				<path d="M277.7,435.2c-1-3.9-1-7.2,0-11.1c0.1-0.5,0.8-0.9,1.6-0.9c1.9,0,3.9,0.2,5.8,0.4c2,0.2,3.9,0.5,5.8,0.9
					c0.7,0.1,1.1,0.8,1,1.4c-0.1,0.6-0.2,1.2-0.2,1.8c-0.1,0.6-0.1,1.2-0.1,1.8c0,0.6,0,1.2,0.1,1.8c0.1,0.6,0.1,1.2,0.2,1.8
					c0.1,0.7-0.3,1.3-1,1.4c-1.9,0.4-3.9,0.7-5.8,0.9c-2,0.2-3.9,0.4-5.8,0.4C278.6,436.1,277.9,435.7,277.7,435.2z"/>
				<path d="M275.4,438.7c0,0,0-0.1,0.1-0.2c0-0.1,0.1-0.3,0.2-0.6c0.1-0.5,0.4-1.2,0.6-2c0.3-1.7,0.8-4,0.7-6.3
					c0.1-1.2-0.1-2.3-0.2-3.4c0-0.5-0.2-1-0.3-1.5c-0.1-0.5-0.2-0.9-0.3-1.4c-0.5-1.7-0.8-2.8-0.8-2.8l5.7-2.1c0,0,0.1,0.3,0.3,0.9
					c0.2,0.6,0.5,1.4,0.7,2.5c0.1,0.5,0.2,1.1,0.3,1.7c0.1,0.6,0.3,1.2,0.3,1.9c0.1,1.3,0.3,2.7,0.3,4.1c0.1,2.8-0.5,5.6-0.9,7.7
					c-0.3,1-0.6,1.9-0.7,2.5c-0.1,0.3-0.2,0.5-0.2,0.7c-0.1,0.2-0.1,0.2-0.1,0.2L275.4,438.7z"/>
			</g>
			<g>
				<path d="M267.8,451.3c1.8-3.6,3.9-6.1,7.1-8.5c0.4-0.3,1.2-0.2,1.8,0.3c1.4,1.3,2.8,2.6,4.2,4.1c1.4,1.4,2.6,2.9,3.8,4.4
					c0.4,0.5,0.3,1.3-0.2,1.7c-1.9,1.6-3.5,3.5-4.7,5.6c-0.3,0.6-1,0.8-1.7,0.5c-3.5-1.9-6.8-4.1-9.8-6.4
					C267.9,452.6,267.6,451.8,267.8,451.3z"/>
				<path d="M263.8,452.5c0,0,0.3-0.1,0.7-0.4c0.4-0.3,1-0.7,1.7-1.2c0.4-0.2,0.7-0.5,1.1-0.9c0.4-0.3,0.8-0.7,1.2-1
					c0.4-0.4,0.8-0.8,1.2-1.2c0.4-0.4,0.8-0.8,1.2-1.3c0.4-0.4,0.7-0.9,1.1-1.3c0.3-0.5,0.6-0.9,0.9-1.4c0.6-0.9,1-1.8,1.5-2.6
					c0.2-0.4,0.4-0.7,0.5-1.1c0.1-0.3,0.2-0.6,0.3-0.8c0.2-0.5,0.3-0.7,0.3-0.7l5.7,2.1c0,0-0.1,0.3-0.4,0.9c-0.1,0.3-0.3,0.6-0.4,1
					c-0.2,0.4-0.3,0.9-0.6,1.3c-0.5,0.9-1,2.1-1.8,3.2c-0.4,0.6-0.7,1.1-1.1,1.7c-0.4,0.5-0.9,1.1-1.3,1.6c-0.4,0.6-0.9,1.1-1.4,1.6
					c-0.5,0.5-1,1-1.4,1.5c-0.5,0.4-1,0.8-1.5,1.2c-0.5,0.4-0.9,0.8-1.3,1.1c-0.9,0.6-1.6,1.1-2.1,1.5c-0.5,0.3-0.9,0.5-0.9,0.5
					L263.8,452.5z"/>
			</g>
			<g>
				<path d="M249.8,457.3c3.7-1.6,6.9-2.2,10.9-1.9c0.5,0,1.1,0.6,1.2,1.3c0.3,1.9,0.5,3.9,0.6,5.8c0.1,1.9,0.1,3.9,0.1,5.9
					c0,0.7-0.6,1.2-1.2,1.2c-2.5,0-4.9,0.4-7.3,1.3c-0.6,0.2-1.3-0.1-1.6-0.7c-1.5-3.7-2.6-7.5-3.4-11.2
					C249.1,458.3,249.4,457.6,249.8,457.3z"/>
				<path d="M246,455.7c0,0,0.3,0.1,0.8,0.2c0.5,0,1.2,0.1,2.1,0.2c0.9,0.1,1.9,0,2.9,0c0.5-0.1,1.1-0.1,1.7-0.2
					c0.3,0,0.6-0.1,0.9-0.1c0.3,0,0.6-0.1,0.8-0.2c0.6-0.1,1.1-0.2,1.7-0.3c0.6-0.1,1.1-0.3,1.6-0.5c0.5-0.2,1-0.3,1.5-0.5
					c0.5-0.2,0.9-0.4,1.3-0.5c0.8-0.3,1.4-0.7,1.9-0.9c0.4-0.2,0.7-0.4,0.7-0.4l3,5.2c0,0-0.3,0.2-0.9,0.5c-0.5,0.3-1.3,0.7-2.3,1.1
					c-0.5,0.2-1,0.4-1.6,0.7c-0.6,0.3-1.2,0.4-1.8,0.6c-0.6,0.2-1.3,0.4-2,0.6c-0.7,0.1-1.4,0.3-2.1,0.4c-0.3,0.1-0.7,0.2-1,0.2
					c-0.4,0-0.7,0.1-1,0.1c-0.7,0.1-1.4,0.1-2,0.2c-1.3,0-2.6,0-3.6-0.1c-1.1-0.1-1.9-0.2-2.6-0.3c-0.6-0.1-1-0.2-1-0.2L246,455.7z"
					/>
			</g>
			<g>
				<path d="M232.2,450.4c3.9,1.1,6.7,2.8,9.6,5.5c0.4,0.3,0.4,1.2,0,1.8c-1,1.6-2.1,3.3-3.3,4.8c-1.2,1.5-2.4,3.1-3.7,4.5
					c-0.5,0.5-1.2,0.6-1.8,0.2c-0.9-0.8-1.9-1.6-3-2.1c-1.1-0.6-2.1-1.2-3.4-1.6c-0.7-0.2-1-0.9-0.8-1.6c0.6-1.9,1.3-3.7,2.1-5.5
					c0.8-1.8,1.6-3.5,2.5-5.2C231,450.6,231.7,450.2,232.2,450.4z"/>
				<path d="M230.3,446.6c0,0,0.2,0.2,0.5,0.6c0.3,0.4,0.8,0.9,1.5,1.5c1.2,1.2,3.1,2.6,5.1,3.8c1,0.5,2,1.1,3.1,1.5
					c0.5,0.2,1,0.4,1.4,0.6c0.5,0.1,0.9,0.3,1.3,0.4c0.4,0.1,0.8,0.3,1.1,0.3c0.3,0.1,0.6,0.1,0.9,0.2c0.5,0.1,0.8,0.2,0.8,0.2
					l-1.1,5.9c0,0-0.3-0.1-1-0.2c-0.3-0.1-0.7-0.1-1.1-0.2c-0.4-0.1-0.9-0.3-1.4-0.4c-0.5-0.2-1.1-0.3-1.6-0.5
					c-0.6-0.2-1.2-0.5-1.8-0.7c-1.3-0.4-2.5-1.2-3.7-1.8c-2.4-1.5-4.7-3.2-6.2-4.7c-0.8-0.7-1.4-1.3-1.8-1.8
					c-0.4-0.5-0.6-0.7-0.6-0.7L230.3,446.6z"/>
			</g>
			<g>
				<path d="M223.1,433.7c2.2,3.3,3.4,6.5,3.8,10.5c0.1,0.5-0.4,1.1-1.1,1.4c-1.9,0.6-3.7,1.2-5.6,1.6c-1.9,0.4-3.8,0.8-5.8,1.1
					c-0.7,0.1-1.3-0.3-1.4-1c-0.2-1.2-0.5-2.4-1-3.6c-0.4-1.2-0.9-2.3-1.6-3.3c-0.4-0.6-0.1-1.3,0.4-1.7c1.7-1,3.4-2,5.1-2.9
					c1.7-0.9,3.5-1.7,5.3-2.4C222.1,433.1,222.9,433.3,223.1,433.7z"/>
				<path d="M224.2,429.6c0,0,0,0.3,0,0.8c0,0.5,0.1,1.2,0.2,2.1c0.1,1.7,0.7,4,1.4,6.2c0.9,2.1,1.9,4.2,2.9,5.6
					c0.5,0.7,0.9,1.3,1.2,1.7c0.3,0.4,0.5,0.6,0.5,0.6l-4.6,3.9c0,0-0.2-0.3-0.6-0.7c-0.4-0.4-0.9-1.2-1.5-2.1
					c-1.2-1.7-2.5-4.3-3.5-6.9c-0.9-2.7-1.6-5.5-1.7-7.6c-0.1-1.1-0.2-1.9-0.2-2.6c0-0.6,0-1,0-1L224.2,429.6z"/>
			</g>
			<g>
				<path d="M227,415.1c-0.4,4-1.6,7.1-3.8,10.4c-0.3,0.4-1.1,0.6-1.7,0.3c-1.8-0.7-3.6-1.5-5.3-2.4c-1.7-0.9-3.5-1.8-5.1-2.9
					c-0.6-0.4-0.8-1.1-0.4-1.7c0.7-1.1,1.1-2.2,1.6-3.3c0.5-1.1,0.8-2.3,0.9-3.6c0.1-0.7,0.8-1.1,1.4-1c2,0.3,3.9,0.6,5.8,1.1
					c1.9,0.4,3.8,1,5.6,1.6C226.5,414,227,414.6,227,415.1z"/>
				<path d="M230.3,412.6c0,0-0.2,0.2-0.5,0.6c-0.2,0.2-0.4,0.4-0.6,0.7c-0.2,0.3-0.4,0.6-0.7,1c-0.2,0.4-0.5,0.8-0.8,1.2
					c-0.2,0.4-0.5,0.9-0.7,1.4c-0.6,0.9-0.9,2-1.4,3.1c-0.7,2.2-1.3,4.4-1.4,6.2c-0.1,0.9-0.2,1.6-0.2,2.1c0,0.5,0,0.8,0,0.8l-6,0
					c0,0,0-0.4,0-1c0-0.6,0.1-1.5,0.2-2.6c0.2-2.1,0.8-4.9,1.7-7.6c0.6-1.3,1-2.6,1.7-3.8c0.3-0.6,0.6-1.2,0.9-1.7
					c0.3-0.5,0.6-1,0.9-1.4c0.3-0.4,0.5-0.9,0.8-1.2c0.3-0.3,0.5-0.6,0.7-0.9c0.4-0.5,0.6-0.8,0.6-0.8L230.3,412.6z"/>
			</g>
			<g>
				<path d="M241.8,403.3c-2.9,2.8-5.8,4.4-9.6,5.5c-0.5,0.1-1.2-0.3-1.6-0.9c-1.8-3.3-3.4-6.9-4.6-10.7c-0.2-0.6,0.1-1.3,0.8-1.5
					c2.3-0.9,4.5-2,6.4-3.7c0.5-0.4,1.3-0.4,1.7,0.1c1.3,1.5,2.6,3,3.7,4.5c1.2,1.6,2.3,3.2,3.3,4.9
					C242.2,402.2,242.2,403,241.8,403.3z"/>
				<path d="M246,403.6c0,0-0.3,0.1-0.8,0.2c-0.5,0.1-1.2,0.2-2,0.5c-0.4,0.1-0.9,0.3-1.3,0.4c-0.5,0.1-0.9,0.4-1.5,0.6
					c-0.5,0.2-1,0.4-1.5,0.7c-0.5,0.3-1,0.6-1.5,0.8c-0.3,0.1-0.5,0.3-0.8,0.4l-0.7,0.5c-0.5,0.3-0.9,0.6-1.4,0.9
					c-0.8,0.7-1.6,1.3-2.2,1.9c-0.6,0.6-1.1,1.1-1.5,1.5c-0.3,0.4-0.5,0.6-0.5,0.6l-4.6-3.9c0,0,0.2-0.3,0.6-0.8
					c0.4-0.4,1.1-1.1,1.8-1.8c0.7-0.8,1.7-1.5,2.7-2.4c0.5-0.4,1.1-0.8,1.7-1.2c0.3-0.2,0.6-0.4,0.9-0.6c0.3-0.2,0.6-0.3,0.9-0.5
					c0.6-0.3,1.2-0.7,1.9-1c0.6-0.3,1.3-0.5,1.9-0.8c0.6-0.2,1.2-0.6,1.8-0.7c0.6-0.2,1.1-0.3,1.6-0.5c1-0.4,1.9-0.5,2.5-0.6
					c0.6-0.1,1-0.2,1-0.2L246,403.6z"/>
			</g>
			<g>
				<path d="M260.8,403.9c-4,0.3-7.3-0.3-10.9-1.9c-0.5-0.2-0.8-1-0.6-1.7c0.8-3.7,1.9-7.5,3.4-11.2c0.3-0.6,1-0.9,1.6-0.7
					c2.4,0.8,4.8,1.3,7.3,1.3c0.7,0,1.2,0.5,1.2,1.2c0.1,2,0,3.9-0.1,5.9c-0.1,2-0.3,3.9-0.6,5.8
					C261.8,403.2,261.3,403.8,260.8,403.9z"/>
				<path d="M263.8,406.7c0,0-0.3-0.1-0.7-0.4c-0.2-0.1-0.5-0.3-0.8-0.4c-0.3-0.2-0.7-0.4-1.1-0.5c-0.8-0.3-1.7-0.8-2.8-1
					c-0.5-0.1-1.1-0.3-1.6-0.5c-0.6-0.1-1.1-0.2-1.7-0.3c-0.6-0.1-1.1-0.2-1.7-0.2c-0.6,0-1.1-0.1-1.7-0.2c-0.5,0-1.1,0-1.6,0
					c-0.5,0-1,0-1.4,0c-0.9,0.1-1.6,0.2-2.1,0.2c-0.5,0.1-0.8,0.2-0.8,0.2l-1.1-5.9c0,0,0.3-0.1,1-0.2c0.6-0.1,1.5-0.1,2.6-0.2
					c0.5-0.1,1.1-0.1,1.7-0.1c0.6,0,1.3,0,1.9,0c0.7,0,1.3,0.1,2,0.2c0.7,0.1,1.4,0.1,2.1,0.3c0.7,0.1,1.4,0.3,2.1,0.4
					c0.7,0.2,1.3,0.4,2,0.6c1.3,0.3,2.4,0.9,3.4,1.3c0.5,0.2,0.9,0.4,1.3,0.6c0.4,0.2,0.7,0.4,1,0.5c0.5,0.3,0.9,0.5,0.9,0.5
					L263.8,406.7z"/>
			</g>
			<g>
				<path d="M274.9,416.4c-3.2-2.4-5.3-4.9-7.1-8.5c-0.2-0.5,0-1.3,0.6-1.7c1.5-1.2,3.1-2.3,4.7-3.4c1.6-1.1,3.3-2.1,5.1-3
					c0.6-0.3,1.3-0.1,1.7,0.5c0.3,0.5,0.7,1,1,1.6c0.3,0.5,0.7,1,1.1,1.5s0.8,0.9,1.3,1.3c0.4,0.4,0.9,0.9,1.3,1.3
					c0.5,0.4,0.6,1.2,0.2,1.7c-1.2,1.5-2.5,3-3.9,4.5c-1.4,1.4-2.8,2.8-4.2,4C276.2,416.6,275.4,416.7,274.9,416.4z"/>
				<path d="M275.5,420.6c0,0-0.5-1.1-1.1-2.7c-0.2-0.4-0.4-0.8-0.7-1.2c-0.2-0.4-0.4-0.9-0.8-1.3c-0.6-0.9-1.2-1.9-2-2.7
					c-1.4-1.8-3.2-3.3-4.6-4.3c-0.7-0.5-1.3-0.9-1.7-1.2c-0.2-0.1-0.4-0.2-0.5-0.3c-0.1-0.1-0.2-0.1-0.2-0.1l3-5.2
					c0,0,0.1,0,0.2,0.1c0.1,0.1,0.3,0.2,0.6,0.4c0.5,0.3,1.3,0.8,2.1,1.4c1.7,1.3,3.9,3.1,5.7,5.3c1,1,1.7,2.2,2.5,3.3
					c0.4,0.5,0.7,1.1,1,1.6c0.3,0.5,0.6,1,0.8,1.5c0.5,1,0.8,1.8,1,2.4c0.2,0.6,0.4,0.9,0.4,0.9L275.5,420.6z"/>
			</g>
		</g>
		<g>
			<path d="M242.4,407c-12.5,4.5-18.9,18.3-14.4,30.8c4.5,12.5,18.3,18.9,30.8,14.4c12.5-4.5,18.9-18.3,14.4-30.8
				C268.6,408.9,254.8,402.5,242.4,407z M254.7,440.9c-6.2,2.3-13.1-0.9-15.4-7.2s0.9-13.1,7.2-15.4c6.2-2.3,13.1,0.9,15.4,7.2
				S260.9,438.7,254.7,440.9z"/>
		</g>
	</g>
	<g id="center-gear">
		<g>
			<g>
				<path d="M382.6,267.8c-0.6-2.2-0.7-4.4-0.6-6.6c0.1-2.2,0.8-4.3,1.7-6.4c0.2-0.5,1-0.8,1.7-0.6c3.7,1.2,7.4,2.4,11.1,3.7
					c0.6,0.2,0.9,0.8,0.7,1.4c-0.8,2-1,4.2-0.5,6.3c0.1,0.6-0.3,1.1-1,1.2c-3.9,0.7-7.7,1.3-11.5,1.8
					C383.5,268.8,382.8,268.4,382.6,267.8z"/>
				<path d="M380.6,272.3c0,0,0.1-0.3,0.2-0.9c0.1-0.6,0.3-1.5,0.4-2.5c0.1-1,0.3-2.3,0.5-3.6c0.1-0.7,0.2-1.3,0.2-2
					c0.1-0.7,0.1-1.4,0.2-2.1c0.1-1.4,0.2-2.8,0.3-4.1c0.1-1.3,0.1-2.5,0.1-3.6c0.1-2.1,0.1-3.5,0.1-3.5h6c0,0,0,1.5-0.1,3.7
					c0,1.1,0,2.4-0.1,3.8c-0.1,1.4-0.2,2.8-0.3,4.3c-0.1,0.7-0.1,1.5-0.2,2.2c-0.1,0.7-0.2,1.4-0.3,2.1c-0.2,1.4-0.3,2.6-0.5,3.7
					c-0.1,1.1-0.3,2-0.4,2.6c-0.1,0.6-0.2,1-0.2,1L380.6,272.3z"/>
			</g>
			<g>
				<path d="M377.8,289.9c-0.2-2.3,0-4.5,0.6-6.6c0.5-2.1,1.4-4.1,2.7-6c0.3-0.5,1.1-0.6,1.8-0.3c3.5,1.8,6.9,3.6,10.3,5.5
					c0.6,0.3,0.8,1,0.5,1.5c-0.6,0.9-0.9,1.9-1.2,3c-0.3,1-0.4,2.1-0.4,3.2c0,0.6-0.5,1.1-1.2,1.1c-3.9,0-7.7,0-11.7-0.2
					C378.4,291,377.8,290.5,377.8,289.9z"/>
				<path d="M375,294c0,0,0.4-1.3,1.1-3.3c0.2-0.5,0.4-1,0.5-1.6c0.2-0.6,0.3-1.2,0.5-1.8c0.4-1.3,0.7-2.6,1.1-4
					c0.3-1.4,0.6-2.7,0.9-4c0.3-1.3,0.6-2.5,0.8-3.5c0.4-2.1,0.6-3.4,0.6-3.4l5.9,1c0,0-0.3,1.4-0.6,3.6c-0.2,1.1-0.5,2.3-0.8,3.7
					c-0.3,1.3-0.6,2.8-1,4.2c-0.4,1.4-0.8,2.8-1.2,4.1c-0.2,0.7-0.4,1.3-0.5,1.9c-0.2,0.6-0.4,1.2-0.6,1.7c-0.7,2.1-1.2,3.5-1.2,3.5
					L375,294z"/>
			</g>
			<g>
				<path d="M369.2,310.8c0.1-1.1,0.3-2.2,0.6-3.3c0.3-1.1,0.6-2.1,1.1-3.1c0.4-1,1-1.9,1.6-2.8c0.6-0.9,1.3-1.8,2.1-2.6
					c0.4-0.4,1.2-0.4,1.8,0c3.1,2.3,6.2,4.7,9.2,7.2c0.5,0.4,0.6,1.1,0.2,1.6c-1.5,1.6-2.4,3.6-2.6,5.8c-0.1,0.6-0.7,0.9-1.3,0.8
					c-3.9-0.6-7.7-1.4-11.5-2.2C369.7,312,369.1,311.4,369.2,310.8z"/>
				<path d="M365.8,314.4c0,0,0.2-0.3,0.5-0.8c0.3-0.5,0.7-1.3,1.2-2.2c1-1.9,2.3-4.3,3.4-6.9c0.6-1.3,1.2-2.5,1.7-3.8
					c0.5-1.2,0.9-2.4,1.3-3.3c0.8-1.9,1.2-3.3,1.2-3.3l5.7,2c0,0-0.4,1.4-1.3,3.4c-0.4,1-0.9,2.2-1.4,3.5c-0.5,1.3-1.1,2.6-1.7,3.9
					c-1.2,2.7-2.5,5.3-3.5,7.2c-0.5,1-0.9,1.8-1.2,2.3c-0.3,0.6-0.5,0.9-0.5,0.9L365.8,314.4z"/>
			</g>
			<g>
				<path d="M357.2,330c0.6-2.2,1.5-4.3,2.7-6c1.2-1.8,2.7-3.4,4.6-4.8c0.5-0.4,1.3-0.2,1.8,0.3c2.7,2.8,5.3,5.7,7.8,8.7
					c0.4,0.5,0.4,1.2,0,1.6c-0.8,0.7-1.5,1.5-2.1,2.4c-0.6,0.9-1.1,1.8-1.4,2.9c-0.2,0.6-0.8,0.8-1.4,0.6c-3.7-1.3-7.3-2.6-11-4
					C357.5,331.2,357,330.5,357.2,330z"/>
				<path d="M353.2,332.9c0,0,0.9-1.1,2.2-2.8c0.3-0.4,0.7-0.9,1-1.3c0.3-0.5,0.7-1,1.1-1.5c0.8-1.1,1.6-2.2,2.4-3.4
					c0.8-1.2,1.5-2.4,2.2-3.5c0.7-1.1,1.4-2.1,1.9-3.1c1-1.8,1.7-3,1.7-3l5.3,2.9c0,0-0.7,1.3-1.8,3.2c-0.5,1-1.2,2-2,3.2
					c-0.7,1.2-1.5,2.4-2.3,3.6c-0.8,1.2-1.7,2.4-2.5,3.5c-0.4,0.6-0.8,1.1-1.1,1.6c-0.4,0.5-0.8,1-1.1,1.4c-1.4,1.7-2.3,2.9-2.3,2.9
					L353.2,332.9z"/>
			</g>
			<g>
				<path d="M342.1,346.8c0.5-1,1-2,1.7-2.9c0.6-0.9,1.3-1.8,2-2.6c0.8-0.8,1.6-1.5,2.5-2.1c0.9-0.7,1.8-1.3,2.8-1.8
					c0.5-0.3,1.3,0,1.7,0.6c2.2,3.2,4.2,6.5,6.3,9.9c0.4,0.6,0.2,1.3-0.3,1.5c-1.9,1.1-3.4,2.6-4.4,4.6c-0.3,0.5-0.9,0.7-1.5,0.3
					c-3.4-1.9-6.8-3.8-10.1-5.8C342.2,348.1,341.9,347.3,342.1,346.8z"/>
				<path d="M337.7,349.1c0,0,0.3-0.2,0.7-0.6c0.2-0.2,0.5-0.4,0.8-0.7c0.3-0.3,0.7-0.6,1-1c1.5-1.5,3.6-3.3,5.5-5.4c1-1,2-2,2.8-3
					c0.9-1,1.7-1.9,2.3-2.7c1.4-1.6,2.2-2.7,2.2-2.7l4.7,3.8c0,0-0.9,1.2-2.3,2.8c-0.7,0.8-1.6,1.8-2.5,2.8c-0.9,1-1.9,2.1-2.9,3.1
					c-2,2.2-4.2,4.1-5.7,5.7c-0.4,0.4-0.8,0.7-1.1,1c-0.3,0.3-0.6,0.5-0.9,0.8c-0.5,0.4-0.8,0.7-0.8,0.7L337.7,349.1z"/>
			</g>
			<g>
				<path d="M324.5,360.9c1.3-1.9,2.8-3.5,4.6-4.8c1.8-1.3,3.7-2.3,5.9-3c0.6-0.2,1.3,0.2,1.6,0.9c1.6,3.5,3.1,7.1,4.5,10.8
					c0.2,0.6,0,1.3-0.5,1.5c-2,0.8-3.8,2-5.1,3.8c-0.4,0.5-1,0.5-1.6,0.1c-3.1-2.4-6-4.9-9-7.5C324.3,362.2,324.1,361.4,324.5,360.9
					z"/>
				<path d="M319.8,362.4c0,0,1.2-0.8,2.9-1.9c1.8-1.1,4-2.8,6.3-4.4c1.1-0.8,2.2-1.7,3.3-2.5c1-0.8,2-1.5,2.8-2.2
					c1.6-1.4,2.6-2.3,2.6-2.3l4,4.5c0,0-1.1,1-2.8,2.4c-0.8,0.7-1.9,1.5-2.9,2.3c-1.1,0.8-2.2,1.8-3.4,2.6c-2.4,1.7-4.7,3.5-6.6,4.6
					c-1.8,1.2-3.1,2-3.1,2L319.8,362.4z"/>
			</g>
			<g>
				<path d="M304.7,371.8c1.6-1.7,3.4-2.9,5.3-3.9c1-0.5,2-0.9,3.1-1.2c1.1-0.3,2.1-0.6,3.3-0.7c0.6-0.1,1.2,0.4,1.4,1.1
					c1,3.8,1.8,7.6,2.7,11.4c0.1,0.7-0.2,1.2-0.8,1.3c-2.2,0.4-4.1,1.4-5.7,2.9c-0.4,0.4-1.1,0.3-1.6-0.2c-2.6-2.9-5.2-5.9-7.6-8.9
					C304.3,373.1,304.2,372.2,304.7,371.8z"/>
				<path d="M299.8,372.5c0,0,0.3-0.1,0.9-0.4c0.6-0.2,1.4-0.5,2.3-1c1.9-0.9,4.5-1.9,7-3.3c1.2-0.6,2.5-1.3,3.7-1.9
					c1.1-0.7,2.2-1.3,3.1-1.8c0.9-0.5,1.7-1,2.2-1.3c0.5-0.3,0.8-0.5,0.8-0.5l3.2,5.1c0,0-0.3,0.2-0.8,0.5c-0.6,0.3-1.3,0.8-2.3,1.3
					c-1,0.5-2.1,1.2-3.3,1.9c-1.2,0.6-2.5,1.3-3.8,2c-2.6,1.4-5.3,2.5-7.3,3.4c-1,0.5-1.8,0.8-2.4,1c-0.6,0.2-0.9,0.4-0.9,0.4
					L299.8,372.5z"/>
			</g>
			<g>
				<path d="M283.3,379.2c1.9-1.4,3.8-2.4,5.9-3c2.1-0.6,4.3-1,6.6-0.8c0.6,0,1.1,0.7,1.2,1.4c0.3,3.9,0.5,7.7,0.6,11.6
					c0,0.7-0.4,1.2-1,1.2c-2.2,0.1-4.3,0.7-6.1,1.9c-0.5,0.3-1.1,0.1-1.5-0.4c-2.1-3.3-4.1-6.6-6-10
					C282.7,380.4,282.8,379.5,283.3,379.2z"/>
				<path d="M278.4,379c0,0,1.4-0.3,3.4-0.8c0.5-0.1,1.1-0.2,1.7-0.4c0.6-0.2,1.2-0.3,1.8-0.5c1.3-0.4,2.6-0.7,4-1.1
					c1.3-0.4,2.7-0.9,3.9-1.3c1.2-0.4,2.4-0.8,3.4-1.2c2-0.8,3.3-1.3,3.3-1.3l2.2,5.6c0,0-1.4,0.5-3.4,1.3c-1,0.4-2.2,0.8-3.5,1.2
					c-1.3,0.4-2.7,0.9-4.1,1.3c-1.4,0.4-2.8,0.8-4.1,1.2c-0.7,0.2-1.3,0.4-1.9,0.5c-0.6,0.1-1.2,0.3-1.7,0.4
					c-2.1,0.5-3.6,0.8-3.6,0.8L278.4,379z"/>
			</g>
			<g>
				<path d="M261,382.8c1-0.5,2.1-0.9,3.1-1.2c1.1-0.4,2.1-0.6,3.2-0.7s2.2-0.2,3.3-0.1c1.1,0,2.2,0.1,3.3,0.4
					c0.6,0.1,1,0.8,0.9,1.6c-0.4,3.9-0.8,7.7-1.3,11.6c-0.1,0.7-0.6,1.1-1.2,1c-2.2-0.4-4.3-0.1-6.3,0.8c-0.5,0.3-1.2-0.1-1.4-0.7
					c-1.5-3.6-2.9-7.3-4.2-10.9C260.2,383.9,260.5,383.1,261,382.8z"/>
				<path d="M256.2,381.8c0,0,0.4,0,1,0c0.6,0,1.5-0.1,2.5-0.2c1-0.1,2.3-0.2,3.6-0.3c1.3-0.1,2.7-0.3,4.1-0.5
					c1.4-0.2,2.8-0.3,4.1-0.6c1.3-0.2,2.5-0.4,3.5-0.6c1-0.2,1.9-0.3,2.5-0.5c0.6-0.1,0.9-0.2,0.9-0.2l1.3,5.9c0,0-0.4,0.1-1,0.2
					c-0.6,0.1-1.5,0.3-2.6,0.5c-1.1,0.2-2.3,0.4-3.7,0.7c-1.4,0.3-2.8,0.4-4.3,0.6c-1.5,0.2-2.9,0.4-4.3,0.5
					c-1.4,0.1-2.6,0.2-3.7,0.3c-1.1,0.1-2,0.2-2.6,0.2c-0.6,0-1,0-1,0L256.2,381.8z"/>
			</g>
			<g>
				<path d="M238.4,382.7c1.1-0.3,2.2-0.6,3.3-0.7c1.1-0.1,2.2-0.1,3.3-0.1c2.2,0,4.4,0.6,6.5,1.4c0.6,0.2,0.9,1,0.7,1.7
					c-0.5,1.9-1,3.8-1.6,5.7c-0.5,1.9-1.1,3.7-1.7,5.6c-0.2,0.6-0.8,1-1.3,0.8c-2.1-0.7-4.2-0.7-6.4-0.3c-0.6,0.1-1.1-0.3-1.3-0.9
					c-0.9-3.8-1.6-7.6-2.3-11.4C237.5,383.6,237.8,382.9,238.4,382.7z"/>
				<path d="M233.8,380.9c0,0,1.4,0.2,3.5,0.4c1,0.1,2.3,0.2,3.6,0.3c1.3,0.1,2.7,0.3,4.1,0.3c2.8,0,5.6,0.2,7.7,0.1
					c2.1-0.1,3.5-0.1,3.5-0.1l0.3,6c0,0-1.5,0-3.7,0.1c-2.2,0.1-5.1,0-8.1-0.1c-1.5,0-2.9-0.2-4.3-0.3c-1.4-0.1-2.6-0.2-3.7-0.3
					c-2.2-0.3-3.6-0.5-3.6-0.5L233.8,380.9z"/>
			</g>
			<g>
				<path d="M216.2,378.8c1.1-0.1,2.3-0.2,3.4-0.1c1.1,0,2.2,0.2,3.3,0.4c1.1,0.3,2.1,0.5,3.1,0.9c1,0.4,2,0.9,3,1.5
					c0.5,0.3,0.7,1.1,0.4,1.8c-1.6,3.5-3.3,7-5.1,10.5c-0.3,0.6-0.9,0.8-1.5,0.6c-1.9-1-4-1.5-6.2-1.3c-0.6,0-1.1-0.4-1.1-1.1
					c-0.2-3.9-0.3-7.8-0.3-11.7C215.1,379.5,215.6,378.8,216.2,378.8z"/>
				<path d="M211.9,376.2c0,0,1.3,0.4,3.4,1c2,0.6,4.7,1.2,7.5,1.8c1.4,0.4,2.7,0.5,4,0.8c1.3,0.2,2.5,0.4,3.5,0.6
					c2.1,0.3,3.5,0.4,3.5,0.4l-0.8,6c0,0-1.5-0.2-3.6-0.5c-1.1-0.2-2.3-0.4-3.7-0.7c-1.3-0.3-2.8-0.5-4.2-0.8
					c-2.9-0.7-5.7-1.3-7.8-1.9c-2.1-0.6-3.5-1-3.5-1L211.9,376.2z"/>
			</g>
			<g>
				<path d="M194.9,371.1c2.3,0.1,4.4,0.6,6.5,1.4c2,0.8,3.9,2,5.6,3.5c0.4,0.4,0.5,1.2,0.1,1.8c-2.2,3.2-4.5,6.4-6.8,9.5
					c-0.4,0.5-1.1,0.7-1.5,0.3c-1.7-1.4-3.7-2.2-5.9-2.4c-0.6-0.1-1-0.6-0.9-1.3c0.5-3.9,1-7.8,1.7-11.6
					C193.7,371.6,194.3,371.1,194.9,371.1z"/>
				<path d="M191.2,367.9c0,0,0.3,0.2,0.9,0.4c0.5,0.3,1.3,0.7,2.3,1.1c1,0.4,2.1,0.9,3.3,1.5c0.6,0.3,1.2,0.6,1.8,0.8
					c0.6,0.3,1.3,0.5,1.9,0.8c1.3,0.5,2.6,1,3.8,1.5c1.2,0.4,2.4,0.8,3.4,1.1c1,0.3,1.8,0.6,2.4,0.8c0.6,0.2,0.9,0.3,0.9,0.3
					l-1.8,5.8c0,0-0.4-0.1-1-0.3c-0.6-0.2-1.5-0.5-2.5-0.9c-1-0.4-2.3-0.8-3.6-1.2c-1.3-0.5-2.6-1-4-1.6c-0.7-0.3-1.4-0.5-2-0.8
					c-0.7-0.3-1.3-0.6-1.9-0.9c-1.3-0.6-2.4-1.1-3.4-1.5c-1-0.4-1.8-0.9-2.4-1.2c-0.6-0.3-0.9-0.5-0.9-0.5L191.2,367.9z"/>
			</g>
			<g>
				<path d="M175.3,359.9c2.2,0.5,4.3,1.3,6.2,2.5c1.8,1.2,3.6,2.6,5,4.4c0.4,0.5,0.3,1.3-0.2,1.8c-2.7,2.8-5.5,5.5-8.3,8.2
					c-0.5,0.5-1.2,0.5-1.6,0c-1.5-1.6-3.3-2.8-5.4-3.3c-0.6-0.2-0.9-0.8-0.7-1.4c1.1-3.7,2.3-7.4,3.6-11.1
					C174,360.2,174.7,359.8,175.3,359.9z"/>
				<path d="M172.1,356.1c0,0,1.1,0.8,2.9,2c1.7,1.3,4.1,2.7,6.4,4.2c1.2,0.8,2.4,1.4,3.5,2.1c1.1,0.6,2.2,1.3,3.1,1.8
					c1.9,1,3.1,1.6,3.1,1.6l-2.7,5.4c0,0-1.3-0.7-3.3-1.7c-1-0.5-2.1-1.2-3.3-1.9c-1.2-0.7-2.5-1.4-3.7-2.2c-2.5-1.6-5-3.1-6.7-4.4
					c-1.8-1.3-3-2.1-3-2.1L172.1,356.1z"/>
			</g>
			<g>
				<path d="M157.8,345.6c2.2,0.8,4,2.1,5.6,3.5c1.7,1.4,3,3.2,4.2,5.2c0.3,0.5,0.1,1.3-0.5,1.7c-3.1,2.3-6.4,4.5-9.6,6.7
					c-0.6,0.4-1.2,0.3-1.5-0.2c-1.1-1.9-2.8-3.3-4.8-4.2c-0.5-0.3-0.7-0.9-0.4-1.5c1.7-3.5,3.5-7,5.4-10.4
					C156.5,345.7,157.2,345.4,157.8,345.6z"/>
				<path d="M155.3,341.3c0,0,0.2,0.3,0.7,0.7c0.4,0.4,1,1.1,1.8,1.8c0.8,0.7,1.6,1.6,2.6,2.5c0.5,0.5,1,0.9,1.5,1.4
					c0.5,0.5,1.1,0.9,1.6,1.4c1.1,0.9,2.1,1.8,3.1,2.7c1,0.8,2,1.6,2.8,2.2c0.8,0.6,1.5,1.2,2,1.6c0.5,0.4,0.8,0.6,0.8,0.6l-3.6,4.8
					c0,0-0.3-0.2-0.8-0.6c-0.5-0.4-1.2-1-2.1-1.6c-0.9-0.7-1.9-1.5-2.9-2.3c-1-0.9-2.1-1.9-3.3-2.8c-0.6-0.5-1.1-1-1.7-1.4
					c-0.5-0.5-1-1-1.5-1.5c-1-0.9-1.9-1.8-2.7-2.6c-0.8-0.7-1.4-1.4-1.9-1.9c-0.4-0.5-0.7-0.7-0.7-0.7L155.3,341.3z"/>
			</g>
			<g>
				<path d="M142.9,328.5c3.9,2.4,6.7,5.8,8.2,10.2c0.2,0.6-0.2,1.3-0.8,1.6c-3.5,1.7-7,3.4-10.6,5c-0.6,0.3-1.3,0.1-1.5-0.5
					c-0.9-2-2.2-3.7-4-5c-0.5-0.3-0.6-1-0.2-1.5c2.3-3.1,4.7-6.3,7.1-9.3C141.6,328.4,142.4,328.2,142.9,328.5z"/>
				<path d="M141.2,323.9c0,0,0.8,1.1,2,2.9c0.6,0.8,1.3,1.9,2.1,2.9c0.8,1,1.7,2.1,2.5,3.2c0.8,1.1,1.8,2.2,2.6,3.2
					c0.9,1,1.7,1.9,2.4,2.7c1.5,1.5,2.4,2.5,2.4,2.5l-4.4,4.2c0,0-1-1.1-2.5-2.7c-0.7-0.8-1.6-1.8-2.5-2.8c-0.9-1-1.9-2.1-2.8-3.3
					c-0.9-1.2-1.8-2.3-2.7-3.4c-0.9-1.1-1.6-2.1-2.2-3c-1.3-1.8-2.1-3-2.1-3L141.2,323.9z"/>
			</g>
			<g>
				<path d="M131.2,309.2c3.4,3.1,5.6,6.9,6.4,11.4c0.1,0.6-0.4,1.2-1.1,1.5c-3.7,1.1-7.5,2.2-11.3,3.1c-0.7,0.2-1.2-0.2-1.4-0.7
					c-0.4-2.2-1.6-4-3.1-5.5c-0.4-0.4-0.4-1.1,0.1-1.6c2.8-2.7,5.6-5.4,8.5-8C129.9,308.9,130.8,308.8,131.2,309.2z"/>
				<path d="M130.3,304.4c0,0,0.6,1.3,1.5,3.2c0.5,0.9,1,2,1.6,3.2c0.6,1.2,1.2,2.4,1.9,3.6c0.7,1.2,1.4,2.4,2,3.6
					c0.7,1.1,1.4,2.1,1.9,3c0.6,0.9,1,1.6,1.4,2.1c0.3,0.5,0.5,0.8,0.5,0.8l-5,3.4c0,0-0.2-0.3-0.5-0.8c-0.3-0.5-0.8-1.3-1.4-2.2
					c-0.6-0.9-1.3-2-2-3.2c-0.7-1.2-1.4-2.5-2.1-3.7c-0.8-1.3-1.4-2.6-2-3.8c-0.6-1.2-1.2-2.4-1.7-3.3c-0.9-2-1.5-3.3-1.5-3.3
					L130.3,304.4z"/>
			</g>
			<g>
				<path d="M122.9,288.2c2.9,3.6,4.3,7.7,4.4,12.3c0,0.6-0.6,1.2-1.3,1.3c-3.8,0.5-7.7,0.8-11.6,1.1c-0.7,0.1-1.2-0.4-1.3-0.9
					c0-0.5-0.1-1.1-0.2-1.6c-0.1-0.5-0.2-1-0.4-1.6c-0.3-1-0.8-2-1.5-2.8c-0.3-0.5-0.2-1.1,0.4-1.5c3.2-2.2,6.5-4.4,9.8-6.4
					C121.7,287.7,122.6,287.7,122.9,288.2z"/>
				<path d="M122.9,283.3c0,0,0.4,1.3,1,3.4c0.3,1,0.6,2.2,1,3.4c0.4,1.2,0.9,2.6,1.3,3.9c0.4,1.3,1,2.6,1.4,3.9
					c0.5,1.2,0.9,2.4,1.3,3.3c0.9,1.9,1.4,3.2,1.4,3.2l-5.5,2.5c0,0-0.6-1.3-1.5-3.3c-0.4-1-0.9-2.2-1.4-3.5c-0.5-1.3-1.1-2.6-1.5-4
					c-0.5-1.4-0.9-2.8-1.4-4.1c-0.5-1.3-0.7-2.5-1.1-3.6c-0.6-2.1-1-3.5-1-3.5L122.9,283.3z"/>
			</g>
			<g>
				<path d="M118.3,266.1c1.1,2,1.8,4.1,2.2,6.3c0.4,2.1,0.3,4.4,0,6.6c-0.1,0.6-0.8,1-1.5,1c-3.9-0.2-7.8-0.5-11.7-0.8
					c-0.7-0.1-1.1-0.6-1-1.2c0.3-2.2-0.1-4.3-1.1-6.3c-0.2-0.5,0-1.2,0.6-1.4c3.6-1.6,7.1-3.2,10.7-4.7
					C117.2,265.4,118.1,265.6,118.3,266.1z"/>
				<path d="M119.1,261.2c0,0,0,0.3,0.1,1c0,0.6,0.1,1.5,0.3,2.5c0.1,1,0.3,2.3,0.5,3.6c0.1,0.7,0.2,1.3,0.3,2
					c0.1,0.7,0.2,1.4,0.4,2.1c0.2,1.4,0.5,2.8,0.7,4c0.3,1.3,0.6,2.5,0.8,3.5c0.2,1,0.4,1.9,0.6,2.5c0.1,0.6,0.2,0.9,0.2,0.9
					l-5.8,1.5c0,0-0.1-0.4-0.2-1c-0.1-0.6-0.3-1.5-0.6-2.6c-0.2-1.1-0.5-2.3-0.8-3.7c-0.2-1.4-0.5-2.8-0.8-4.2
					c-0.1-0.7-0.3-1.4-0.4-2.2c-0.1-0.7-0.2-1.4-0.3-2.1c-0.2-1.4-0.3-2.6-0.5-3.7c-0.2-1.1-0.2-2-0.3-2.6c0-0.6-0.1-1-0.1-1
					L119.1,261.2z"/>
			</g>
			<g>
				<path d="M117.5,243.5c0.8,2.2,1.2,4.4,1.1,6.5c0.1,2.2-0.3,4.4-1.1,6.5c-0.2,0.6-0.9,0.9-1.7,0.7c-3.8-0.8-7.5-1.8-11.3-2.8
					c-0.7-0.2-1-0.7-0.9-1.3c0.3-1,0.4-2.1,0.4-3.2c0-1.1-0.1-2.1-0.4-3.2c-0.2-0.6,0.2-1.1,0.9-1.3c3.8-1,7.5-2,11.3-2.8
					C116.6,242.6,117.3,242.9,117.5,243.5z"/>
				<path d="M119.1,238.8c0,0-0.1,1.4-0.3,3.5c-0.1,2.1-0.1,4.9-0.2,7.7c0.1,2.8,0.1,5.6,0.2,7.7c0.2,2.1,0.3,3.5,0.3,3.5l-6,0.5
					c0,0-0.1-1.5-0.3-3.7c-0.2-2.2-0.2-5.1-0.3-8.1c0.1-2.9,0.1-5.9,0.3-8.1c0.2-2.2,0.3-3.7,0.3-3.7L119.1,238.8z"/>
			</g>
			<g>
				<path d="M120.5,221.1c0.3,2.2,0.4,4.5,0,6.6c-0.4,2.1-1.1,4.2-2.2,6.3c-0.3,0.5-1.1,0.7-1.8,0.5c-3.6-1.5-7.2-3-10.7-4.7
					c-0.6-0.3-0.9-0.9-0.6-1.4c1-2,1.4-4.1,1.1-6.3c-0.1-0.6,0.4-1.1,1-1.2c3.9-0.4,7.8-0.6,11.7-0.8
					C119.8,220,120.4,220.5,120.5,221.1z"/>
				<path d="M122.9,216.8c0,0-0.1,0.3-0.2,0.9c-0.1,0.6-0.3,1.4-0.6,2.5c-0.2,1-0.5,2.2-0.8,3.5c-0.2,1.3-0.5,2.7-0.7,4
					c-0.1,0.7-0.2,1.4-0.4,2.1c-0.1,0.7-0.2,1.4-0.3,2c-0.2,1.3-0.3,2.5-0.5,3.6c-0.2,1-0.2,1.9-0.3,2.5c0,0.6-0.1,1-0.1,1l-6-0.5
					c0,0,0-0.4,0.1-1c0-0.6,0.1-1.6,0.3-2.6c0.1-1.1,0.3-2.4,0.5-3.7c0.1-0.7,0.2-1.4,0.3-2.1c0.1-0.7,0.3-1.4,0.4-2.2
					c0.3-1.4,0.5-2.9,0.8-4.2c0.3-1.3,0.6-2.6,0.8-3.7c0.2-1.1,0.5-2,0.6-2.6c0.1-0.6,0.2-1,0.2-1L122.9,216.8z"/>
			</g>
			<g>
				<path d="M127.3,199.5c0,4.6-1.5,8.7-4.4,12.3c-0.4,0.5-1.2,0.5-1.8,0.2c-3.3-2.1-6.6-4.2-9.8-6.4c-0.6-0.4-0.7-1-0.4-1.5
					c0.6-0.9,1.1-1.8,1.5-2.8c0.2-0.5,0.3-1,0.4-1.6c0.1-0.5,0.2-1.1,0.2-1.6c0-0.6,0.6-1,1.3-0.9c3.9,0.3,7.8,0.7,11.6,1.1
					C126.7,198.4,127.3,198.9,127.3,199.5z"/>
				<path d="M130.3,195.7c0,0-0.6,1.3-1.4,3.2c-0.4,1-0.8,2.1-1.3,3.3c-0.5,1.2-1,2.5-1.4,3.9c-0.4,1.3-0.9,2.7-1.3,3.9
					c-0.4,1.2-0.7,2.4-1,3.4c-0.6,2-1,3.4-1,3.4l-5.8-1.5c0,0,0.4-1.4,1-3.5c0.3-1.1,0.6-2.3,1.1-3.6c0.4-1.3,0.9-2.7,1.4-4.1
					c0.4-1.4,1-2.7,1.5-4c0.5-1.3,1-2.5,1.4-3.5c0.9-2,1.5-3.3,1.5-3.3L130.3,195.7z"/>
			</g>
			<g>
				<path d="M137.6,179.4c-0.8,4.5-3,8.4-6.4,11.4c-0.4,0.4-1.3,0.3-1.8-0.2c-2.9-2.6-5.7-5.2-8.5-8c-0.5-0.5-0.5-1.2-0.1-1.6
					c1.5-1.6,2.7-3.4,3.1-5.5c0.1-0.6,0.7-0.9,1.4-0.7c3.8,0.9,7.6,2,11.3,3.1C137.2,178.2,137.7,178.9,137.6,179.4z"/>
				<path d="M141.2,176.1c0,0-0.2,0.3-0.5,0.8c-0.3,0.5-0.8,1.3-1.4,2.1c-0.6,0.9-1.3,1.9-1.9,3c-0.7,1.1-1.4,2.4-2,3.6
					c-0.7,1.2-1.4,2.5-1.9,3.6c-0.6,1.2-1.2,2.3-1.6,3.2c-0.9,1.9-1.5,3.2-1.5,3.2l-5.5-2.5c0,0,0.6-1.3,1.5-3.3
					c0.5-1,1.1-2.1,1.7-3.3c0.6-1.2,1.3-2.5,2-3.8c0.7-1.3,1.5-2.5,2.1-3.7c0.7-1.2,1.4-2.2,2-3.2c0.6-0.9,1.1-1.7,1.4-2.2
					c0.3-0.5,0.5-0.8,0.5-0.8L141.2,176.1z"/>
			</g>
			<g>
				<path d="M151.2,161.4c-1.6,4.3-4.3,7.7-8.2,10.2c-0.5,0.3-1.3,0.1-1.8-0.5c-2.4-3-4.8-6.2-7.1-9.3c-0.4-0.5-0.3-1.2,0.2-1.5
					c1.8-1.2,3.1-3,4-5c0.2-0.5,0.9-0.8,1.5-0.5c3.6,1.6,7.1,3.2,10.6,5C151,160,151.4,160.8,151.2,161.4z"/>
				<path d="M155.3,158.7c0,0-1,1-2.4,2.5c-0.7,0.8-1.5,1.7-2.4,2.7c-0.9,1-1.8,2-2.6,3.2c-0.9,1.1-1.7,2.2-2.5,3.2
					c-0.8,1-1.5,2.1-2.1,2.9c-1.2,1.7-2,2.9-2,2.9l-5-3.4c0,0,0.8-1.2,2.1-3c0.7-0.9,1.3-2,2.2-3c0.8-1.1,1.8-2.2,2.7-3.4
					c0.9-1.2,1.9-2.3,2.8-3.3c0.9-1,1.7-2,2.5-2.8c1.5-1.6,2.5-2.6,2.5-2.6L155.3,158.7z"/>
			</g>
			<g>
				<path d="M167.6,145.8c-1.2,1.9-2.5,3.7-4.2,5.2c-1.7,1.4-3.5,2.6-5.6,3.5c-0.6,0.2-1.3-0.1-1.7-0.8c-1.9-3.4-3.7-6.8-5.4-10.4
					c-0.3-0.6-0.1-1.3,0.4-1.5c2-0.9,3.6-2.3,4.8-4.2c0.3-0.5,1-0.6,1.5-0.2c3.3,2.2,6.5,4.4,9.6,6.7
					C167.6,144.5,167.9,145.3,167.6,145.8z"/>
				<path d="M172.1,143.9c0,0-0.3,0.2-0.8,0.6c-0.5,0.4-1.2,0.9-2,1.6c-0.8,0.7-1.8,1.4-2.8,2.2c-1,0.9-2.1,1.8-3.1,2.7
					c-0.5,0.5-1.1,0.9-1.6,1.4c-0.5,0.5-1,0.9-1.5,1.4c-1,0.9-1.8,1.8-2.6,2.5c-0.8,0.7-1.3,1.4-1.8,1.8c-0.4,0.4-0.7,0.7-0.7,0.7
					l-4.4-4.2c0,0,0.3-0.3,0.7-0.7c0.5-0.5,1-1.2,1.9-1.9c0.8-0.8,1.7-1.6,2.7-2.6c0.5-0.5,1-1,1.5-1.5c0.5-0.5,1.1-1,1.7-1.4
					c1.1-1,2.2-1.9,3.3-2.8c1.1-0.9,2.1-1.6,2.9-2.3c0.9-0.7,1.6-1.2,2.1-1.6c0.5-0.4,0.8-0.6,0.8-0.6L172.1,143.9z"/>
			</g>
			<g>
				<path d="M186.4,133.3c-1.4,1.8-3.1,3.2-5,4.4c-1.8,1.2-3.9,2-6.2,2.5c-0.6,0.1-1.3-0.3-1.5-1c-1.3-3.7-2.5-7.4-3.6-11.1
					c-0.2-0.6,0.1-1.3,0.7-1.4c2.1-0.6,3.9-1.8,5.4-3.3c0.4-0.4,1.1-0.4,1.6,0c2.8,2.7,5.6,5.4,8.3,8.2
					C186.6,132,186.7,132.8,186.4,133.3z"/>
				<path d="M191.2,132.2c0,0-1.2,0.6-3.1,1.6c-0.9,0.5-2,1.1-3.1,1.8c-1.1,0.7-2.4,1.3-3.5,2.1c-2.3,1.5-4.7,3-6.4,4.2
					c-1.7,1.2-2.9,2-2.9,2l-3.6-4.8c0,0,1.2-0.8,3-2.1c1.8-1.3,4.3-2.8,6.7-4.4c1.2-0.8,2.5-1.5,3.7-2.2c1.2-0.7,2.3-1.3,3.3-1.9
					c2-1,3.3-1.7,3.3-1.7L191.2,132.2z"/>
			</g>
			<g>
				<path d="M207,124.1c-1.8,1.4-3.6,2.7-5.6,3.5c-2,0.8-4.2,1.3-6.5,1.4c-0.6,0-1.2-0.6-1.3-1.3c-0.6-3.8-1.2-7.7-1.7-11.6
					c-0.1-0.7,0.3-1.2,0.9-1.3c2.2-0.2,4.2-1,5.9-2.4c0.5-0.4,1.1-0.3,1.5,0.3c2.4,3.1,4.6,6.3,6.8,9.5
					C207.5,122.9,207.5,123.7,207,124.1z"/>
				<path d="M211.9,123.8c0,0-0.3,0.1-0.9,0.3c-0.6,0.2-1.4,0.5-2.4,0.8c-1,0.3-2.2,0.7-3.4,1.1c-1.2,0.5-2.5,1-3.8,1.5
					c-0.7,0.3-1.3,0.5-1.9,0.8c-0.6,0.3-1.2,0.6-1.8,0.8c-1.2,0.5-2.3,1-3.3,1.5c-1,0.4-1.7,0.8-2.3,1.1c-0.5,0.3-0.9,0.4-0.9,0.4
					l-2.7-5.4c0,0,0.3-0.2,0.9-0.5c0.6-0.3,1.4-0.7,2.4-1.2c1-0.5,2.2-1,3.4-1.5c0.6-0.3,1.3-0.6,1.9-0.9c0.7-0.3,1.4-0.5,2-0.8
					c1.4-0.5,2.7-1.1,4-1.6c1.3-0.4,2.5-0.9,3.6-1.2c1-0.4,1.9-0.6,2.5-0.9c0.6-0.2,1-0.3,1-0.3L211.9,123.8z"/>
			</g>
			<g>
				<path d="M228.9,118.6c-1,0.6-2,1.1-3,1.5c-1,0.4-2.1,0.7-3.1,0.9c-1.1,0.2-2.1,0.4-3.3,0.4c-1.1,0-2.2-0.1-3.4-0.1
					c-0.6-0.1-1.1-0.7-1.1-1.5c0-3.9,0.1-7.8,0.3-11.7c0-0.7,0.5-1.1,1.1-1.1c2.2,0.2,4.3-0.4,6.2-1.3c0.5-0.3,1.2,0,1.5,0.6
					c1.8,3.5,3.5,7,5.1,10.5C229.6,117.4,229.4,118.2,228.9,118.6z"/>
				<path d="M233.8,119.2c0,0-1.4,0.2-3.5,0.4c-1,0.2-2.2,0.4-3.5,0.6c-1.3,0.2-2.7,0.4-4,0.8c-2.7,0.6-5.5,1.2-7.5,1.8
					c-2,0.6-3.4,1-3.4,1l-1.8-5.8c0,0,1.4-0.4,3.5-1c2.1-0.7,5-1.3,7.8-1.9c1.4-0.4,2.9-0.6,4.2-0.8c1.4-0.2,2.6-0.5,3.7-0.7
					c2.2-0.3,3.6-0.5,3.6-0.5L233.8,119.2z"/>
			</g>
			<g>
				<path d="M251.5,116.8c-2.1,0.8-4.3,1.4-6.5,1.4c-1.1,0-2.2,0-3.3-0.1c-1.1-0.1-2.2-0.4-3.3-0.7c-0.6-0.2-0.9-0.9-0.8-1.6
					c0.7-3.8,1.5-7.6,2.3-11.4c0.1-0.7,0.7-1.1,1.3-0.9c2.1,0.5,4.3,0.5,6.4-0.3c0.6-0.2,1.1,0.1,1.3,0.8c0.6,1.9,1.2,3.7,1.7,5.6
					c0.5,1.9,1.1,3.8,1.6,5.7C252.3,115.8,252,116.6,251.5,116.8z"/>
				<path d="M256.2,118.2c0,0-1.4,0-3.5-0.1c-2.1-0.1-4.9,0-7.7,0.1c-1.4,0-2.8,0.2-4.1,0.3c-1.3,0.1-2.5,0.2-3.6,0.3
					c-2.1,0.3-3.5,0.4-3.5,0.4l-0.8-6c0,0,1.5-0.2,3.6-0.5c1.1-0.1,2.4-0.2,3.7-0.3c1.4-0.1,2.8-0.3,4.3-0.3
					c2.9-0.1,5.9-0.2,8.1-0.1c2.2,0.1,3.7,0.1,3.7,0.1L256.2,118.2z"/>
			</g>
			<g>
				<path d="M274,118.9c-1.1,0.2-2.2,0.4-3.3,0.4c-1.1,0.1-2.2,0-3.3-0.1c-1.1-0.1-2.2-0.4-3.2-0.7c-1.1-0.3-2.1-0.7-3.1-1.2
					c-0.5-0.3-0.8-1.1-0.5-1.7c1.3-3.7,2.7-7.3,4.2-10.9c0.3-0.6,0.9-0.9,1.4-0.7c2,0.9,4.1,1.2,6.3,0.8c0.6-0.1,1.1,0.3,1.2,1
					c0.5,3.9,1,7.8,1.3,11.6C275,118,274.6,118.8,274,118.9z"/>
				<path d="M278.4,121c0,0-0.3-0.1-0.9-0.2c-0.6-0.1-1.5-0.3-2.5-0.5c-1-0.2-2.2-0.4-3.5-0.6c-1.3-0.2-2.7-0.4-4.1-0.6
					c-1.4-0.2-2.8-0.4-4.1-0.5c-1.3-0.1-2.5-0.2-3.6-0.3c-1-0.1-1.9-0.2-2.5-0.2c-0.6,0-1,0-1,0l0.3-6c0,0,0.4,0,1,0
					c0.6,0,1.6,0.1,2.6,0.2c1.1,0.1,2.4,0.2,3.7,0.3c1.4,0.1,2.8,0.3,4.3,0.5c1.5,0.2,2.9,0.3,4.3,0.6c1.4,0.2,2.6,0.5,3.7,0.7
					c1.1,0.2,2,0.3,2.6,0.5c0.6,0.1,1,0.2,1,0.2L278.4,121z"/>
			</g>
			<g>
				<path d="M295.8,124.7c-2.3,0.1-4.5-0.2-6.6-0.8c-2.1-0.6-4.1-1.6-5.9-3c-0.5-0.3-0.6-1.2-0.2-1.8c1.9-3.4,3.9-6.7,6-10
					c0.4-0.6,1-0.8,1.5-0.4c1.8,1.2,3.9,1.8,6.1,1.9c0.6,0,1,0.5,1,1.2c-0.1,3.9-0.3,7.8-0.6,11.6C297,124,296.4,124.6,295.8,124.7z
					"/>
				<path d="M299.8,127.6c0,0-1.3-0.5-3.3-1.3c-1-0.4-2.1-0.7-3.4-1.2c-1.2-0.4-2.6-0.9-3.9-1.3c-1.3-0.4-2.7-0.8-4-1.1
					c-0.6-0.2-1.2-0.3-1.8-0.5c-0.6-0.1-1.1-0.3-1.7-0.4c-2-0.5-3.4-0.8-3.4-0.8l1.3-5.9c0,0,1.4,0.3,3.6,0.8
					c0.5,0.1,1.1,0.3,1.7,0.4c0.6,0.2,1.2,0.3,1.9,0.5c1.3,0.4,2.7,0.8,4.1,1.2c1.4,0.4,2.8,0.9,4.1,1.3c1.3,0.5,2.5,0.8,3.5,1.2
					c2,0.8,3.4,1.3,3.4,1.3L299.8,127.6z"/>
			</g>
			<g>
				<path d="M316.3,134.1c-1.1-0.1-2.2-0.4-3.3-0.7c-1.1-0.3-2.1-0.7-3.1-1.2c-1.9-1-3.7-2.3-5.3-3.9c-0.4-0.4-0.4-1.3,0.1-1.8
					c2.5-3,5-6,7.6-8.9c0.5-0.5,1.1-0.6,1.6-0.2c1.6,1.5,3.5,2.5,5.7,2.9c0.6,0.1,0.9,0.7,0.8,1.3c-0.8,3.8-1.7,7.7-2.7,11.4
					C317.6,133.7,316.9,134.2,316.3,134.1z"/>
				<path d="M319.8,137.7c0,0-0.3-0.2-0.8-0.5c-0.5-0.3-1.3-0.7-2.2-1.3c-0.9-0.5-2-1.1-3.1-1.8c-1.2-0.6-2.4-1.2-3.7-1.9
					c-2.5-1.3-5.1-2.4-7-3.3c-0.9-0.5-1.8-0.8-2.3-1c-0.6-0.2-0.9-0.4-0.9-0.4l2.2-5.6c0,0,0.3,0.1,0.9,0.4c0.6,0.2,1.5,0.6,2.4,1
					c2,0.9,4.7,2,7.3,3.4c1.3,0.7,2.6,1.3,3.8,2c1.2,0.7,2.3,1.3,3.3,1.9c1,0.5,1.7,1,2.3,1.3c0.5,0.3,0.8,0.5,0.8,0.5L319.8,137.7z
					"/>
			</g>
			<g>
				<path d="M335,146.9c-2.2-0.6-4.2-1.7-5.9-3c-1.8-1.2-3.3-2.9-4.6-4.8c-0.3-0.5-0.2-1.3,0.4-1.8c3-2.6,5.9-5.1,9-7.5
					c0.5-0.4,1.2-0.4,1.6,0.1c1.3,1.7,3.1,3,5.1,3.8c0.5,0.2,0.8,0.8,0.5,1.5c-1.4,3.6-2.9,7.2-4.5,10.8
					C336.3,146.7,335.5,147.1,335,146.9z"/>
				<path d="M337.7,151c0,0-1.1-0.9-2.6-2.3c-0.8-0.7-1.8-1.4-2.8-2.2c-1-0.8-2.1-1.7-3.3-2.5c-2.3-1.6-4.5-3.3-6.3-4.4
					c-1.8-1.1-2.9-1.9-2.9-1.9l3.2-5.1c0,0,1.2,0.8,3.1,2c1.9,1.1,4.2,2.9,6.6,4.6c1.2,0.9,2.3,1.8,3.4,2.6c1.1,0.9,2.1,1.6,2.9,2.3
					c1.7,1.4,2.8,2.4,2.8,2.4L337.7,151z"/>
			</g>
			<g>
				<path d="M351.2,162.7c-1-0.5-2-1.1-2.8-1.8c-0.9-0.6-1.7-1.4-2.5-2.1c-0.8-0.8-1.4-1.7-2-2.6c-0.6-0.9-1.2-1.9-1.7-2.9
					c-0.2-0.5,0.1-1.3,0.7-1.7c3.3-2,6.7-4,10.1-5.8c0.6-0.3,1.3-0.2,1.5,0.3c1,2,2.5,3.5,4.4,4.6c0.5,0.3,0.6,1,0.3,1.5
					c-2,3.4-4.1,6.7-6.3,9.9C352.5,162.7,351.7,163,351.2,162.7z"/>
				<path d="M353.2,167.1c0,0-0.8-1.1-2.2-2.7c-0.7-0.8-1.5-1.7-2.3-2.7c-0.9-1-1.9-2-2.8-3c-1.9-2.1-4-4-5.5-5.4
					c-0.4-0.4-0.7-0.7-1-1c-0.3-0.3-0.6-0.5-0.8-0.7c-0.5-0.4-0.7-0.6-0.7-0.6l4-4.5c0,0,0.3,0.2,0.8,0.7c0.2,0.2,0.5,0.5,0.9,0.8
					c0.3,0.3,0.7,0.7,1.1,1c1.6,1.5,3.8,3.5,5.7,5.7c1,1.1,2,2.1,2.9,3.1c0.9,1,1.7,2,2.5,2.8c1.5,1.6,2.3,2.8,2.3,2.8L353.2,167.1z
					"/>
			</g>
			<g>
				<path d="M364.5,180.9c-1.9-1.3-3.4-3-4.6-4.8c-1.3-1.8-2.2-3.8-2.7-6c-0.2-0.6,0.3-1.3,1-1.5c3.6-1.5,7.3-2.8,11-4
					c0.6-0.2,1.3,0.1,1.4,0.6c0.3,1,0.8,2,1.4,2.9c0.6,0.9,1.3,1.7,2.1,2.4c0.5,0.4,0.5,1.1,0,1.6c-2.6,3-5.1,5.8-7.8,8.7
					C365.8,181.1,365,181.3,364.5,180.9z"/>
				<path d="M365.8,185.7c0,0-0.7-1.2-1.7-3c-0.5-0.9-1.2-1.9-1.9-3.1c-0.7-1.1-1.5-2.3-2.2-3.5c-0.8-1.1-1.6-2.3-2.4-3.4
					c-0.4-0.5-0.7-1.1-1.1-1.5c-0.4-0.5-0.7-0.9-1-1.3c-1.3-1.7-2.2-2.8-2.2-2.8l4.7-3.8c0,0,0.9,1.2,2.3,2.9
					c0.3,0.4,0.7,0.9,1.1,1.4c0.4,0.5,0.7,1.1,1.1,1.6c0.8,1.1,1.6,2.3,2.5,3.5c0.8,1.2,1.6,2.5,2.3,3.6c0.7,1.2,1.4,2.2,2,3.2
					c1.1,1.9,1.8,3.2,1.8,3.2L365.8,185.7z"/>
			</g>
			<g>
				<path d="M374.5,201.2c-0.8-0.8-1.5-1.7-2.1-2.6c-0.6-0.9-1.2-1.9-1.6-2.8c-0.5-1-0.8-2-1.1-3.1c-0.3-1.1-0.5-2.2-0.6-3.3
					c-0.1-0.6,0.5-1.2,1.2-1.4c3.8-0.8,7.6-1.5,11.5-2.2c0.7-0.1,1.3,0.2,1.3,0.8c0.3,2.2,1.2,4.2,2.6,5.8c0.4,0.4,0.3,1.1-0.2,1.6
					c-3,2.5-6.1,4.9-9.2,7.2C375.8,201.6,375,201.6,374.5,201.2z"/>
				<path d="M375,206.1c0,0-0.4-1.3-1.2-3.3c-0.4-1-0.8-2.1-1.3-3.3c-0.5-1.2-1.1-2.5-1.7-3.8c-1.1-2.6-2.4-5.1-3.4-6.9
					c-0.5-0.9-0.9-1.7-1.2-2.2c-0.3-0.5-0.5-0.8-0.5-0.8l5.3-2.9c0,0,0.2,0.3,0.5,0.9c0.3,0.5,0.7,1.4,1.2,2.3c1,2,2.4,4.5,3.5,7.2
					c0.6,1.3,1.2,2.7,1.7,3.9c0.5,1.3,1,2.5,1.4,3.5c0.8,2,1.3,3.4,1.3,3.4L375,206.1z"/>
			</g>
			<g>
				<path d="M381,222.8c-1.3-1.9-2.2-3.9-2.7-6c-0.6-2.1-0.8-4.3-0.6-6.6c0-0.6,0.7-1.1,1.4-1.1c3.9-0.2,7.8-0.2,11.7-0.2
					c0.7,0,1.2,0.5,1.2,1.1c0,1.1,0.1,2.2,0.4,3.2c0.3,1,0.7,2,1.2,3c0.3,0.5,0.1,1.2-0.5,1.5c-3.4,1.9-6.8,3.8-10.3,5.5
					C382.2,223.4,381.4,223.3,381,222.8z"/>
				<path d="M380.6,227.7c0,0-0.2-1.4-0.6-3.4c-0.2-1-0.5-2.2-0.8-3.5c-0.3-1.3-0.6-2.6-0.9-4c-0.4-1.3-0.8-2.7-1.1-4
					c-0.2-0.6-0.4-1.2-0.5-1.8c-0.2-0.6-0.4-1.1-0.5-1.6c-0.7-2-1.1-3.3-1.1-3.3l5.7-2c0,0,0.5,1.4,1.2,3.5c0.2,0.5,0.4,1.1,0.6,1.7
					c0.2,0.6,0.4,1.2,0.5,1.9c0.4,1.3,0.8,2.7,1.2,4.1c0.4,1.4,0.7,2.9,1,4.2c0.3,1.3,0.6,2.6,0.8,3.7c0.4,2.2,0.6,3.6,0.6,3.6
					L380.6,227.7z"/>
			</g>
			<g>
				<path d="M383.7,245.3c-0.9-2.1-1.5-4.2-1.7-6.4c-0.1-2.2,0-4.4,0.6-6.6c0.1-0.6,0.9-1,1.6-0.9c3.8,0.5,7.7,1.1,11.5,1.8
					c0.7,0.1,1.1,0.7,1,1.2c-0.4,2.1-0.3,4.3,0.5,6.3c0.2,0.5-0.1,1.1-0.7,1.4c-3.7,1.3-7.4,2.6-11.1,3.7
					C384.7,246.1,383.9,245.8,383.7,245.3z"/>
				<path d="M382.5,250c0,0,0-1.4-0.1-3.5c0-1.1,0-2.3-0.1-3.6c-0.1-1.3-0.2-2.7-0.3-4.1c-0.1-0.7-0.1-1.4-0.2-2.1
					c-0.1-0.7-0.2-1.4-0.2-2c-0.2-1.3-0.3-2.5-0.5-3.6c-0.1-1-0.3-1.9-0.4-2.5c-0.1-0.6-0.2-0.9-0.2-0.9l5.9-1c0,0,0.1,0.4,0.2,1
					c0.1,0.6,0.3,1.5,0.4,2.6c0.1,1.1,0.3,2.4,0.5,3.7c0.1,0.7,0.2,1.4,0.3,2.1c0.1,0.7,0.1,1.4,0.2,2.2c0.1,1.5,0.2,2.9,0.3,4.3
					c0.1,1.4,0.1,2.7,0.1,3.8c0.1,2.2,0.1,3.7,0.1,3.7H382.5z"/>
			</g>
		</g>
		<g>
			<path d="M250.6,124.4c-69.4,0-125.7,56.3-125.7,125.7s56.3,125.7,125.7,125.7S376.3,319.4,376.3,250S320,124.4,250.6,124.4z
				 M250.6,289.4c-21.7,0-39.3-17.6-39.3-39.3s17.6-39.3,39.3-39.3s39.3,17.6,39.3,39.3S272.3,289.4,250.6,289.4z"/>
		</g>
	</g>
</g>
<g id="wind">
	<g>
		<path class="st0" d="M249.2,88.9V50.3C148.5,50.7,65.3,125.5,52,222.7"/>
		<path class="st0" d="M249.8,411.1c-0.2,0-0.4,0-0.7,0v38.5c0.2,0,0.4,0,0.7,0c107.9,0,195.8-85.6,199.5-192.5"/>
	</g>
	<path class="st1" d="M257.8,144.3c-2.6-0.2-5.2-0.3-7.8-0.3c-58.5,0-106,47.5-106,106c0,9.3,1.2,18.4,3.5,27"/>
	<path class="st1" d="M249.5,356c0.2,0,0.3,0,0.5,0c58.5,0,106-47.5,106-106c0-3-0.1-6-0.4-9"/>
</g>
<g id="propeller">
	<path class="st2" d="M246.3,235.5c-6.5,1.6-11.3,7.5-11.3,14.5s4.8,12.9,11.3,14.5c1.4-6.7,2.5-11.8,3.1-14.5
		C248.9,247.2,247.7,242.2,246.3,235.5z"/>
	<path class="st2" d="M253.7,235.5c-1.4,6.7-2.5,11.8-3.1,14.5c0.6,2.8,1.7,7.8,3.1,14.5c6.5-1.6,11.3-7.5,11.3-14.5
		S260.2,237.1,253.7,235.5z"/>
	<path class="st3" d="M257.6,215.8c6.2-31.5,13.8-76.2,13.8-103.8c0-46.1-9.6-83.5-21.5-83.5s-21.5,37.4-21.5,83.5
		c0,27.5,7.7,72.2,13.8,103.8c2.5-0.5,5-0.8,7.6-0.8S255.2,215.3,257.6,215.8z"/>
	<path class="st3" d="M242.4,284.2c-6.2,31.5-13.8,76.2-13.8,103.8c0,46.1,9.6,83.5,21.5,83.5s21.5-37.4,21.5-83.5
		c0-27.5-7.7-72.2-13.8-103.8c-2.5,0.5-5,0.8-7.6,0.8S244.8,284.7,242.4,284.2z"/>
	<path class="st3" d="M285,250c0-16.7-11.7-30.7-27.4-34.2c-2.5-0.5-5-0.8-7.6-0.8s-5.2,0.3-7.6,0.8c-15.7,3.5-27.4,17.4-27.4,34.2
		c0,16.7,11.7,30.7,27.4,34.2c2.5,0.5,5,0.8,7.6,0.8s5.2-0.3,7.6-0.8C273.3,280.7,285,266.7,285,250z M253.7,264.5
		c-1.2,0.3-2.4,0.5-3.7,0.5s-2.5-0.2-3.7-0.5c-6.5-1.6-11.3-7.5-11.3-14.5s4.8-12.9,11.3-14.5c1.2-0.3,2.4-0.5,3.7-0.5
		s2.5,0.2,3.7,0.5c6.5,1.6,11.3,7.5,11.3,14.5S260.2,262.9,253.7,264.5z"/>
</g>
</svg>
